<svg width="55" height="55" viewBox="0 0 55 55" fill="none" xmlns="http://www.w3.org/2000/svg">
<path d="M27.768 54.9985C22.0891 54.9985 12.5846 54.9985 6.60905 49.0892C0.666672 43.2116 0.666672 33.6258 0.666672 27.8972C0.666672 22.1686 0.66667 12.5813 6.61206 6.70366C12.5861 0.795901 22.0891 0.795898 27.768 0.795898C33.4469 0.795898 43.0839 0.795898 48.9615 6.73828C54.8708 12.7138 54.8708 22.2183 54.8708 27.8987C54.8693 33.5806 54.8663 43.0881 48.9615 49.0576C43.0824 55 33.4951 55 27.768 55V54.9985Z" fill="white"/>
<path fill-rule="evenodd" clip-rule="evenodd" d="M27.7689 15.195C25.3571 15.195 23.0441 16.1531 21.3387 17.8584C19.6334 19.5638 18.6753 21.8768 18.6753 24.2886C18.6753 25.4828 18.9105 26.6652 19.3675 27.7685C19.8245 28.8718 20.4943 29.8743 21.3387 30.7187C22.1832 31.5631 23.1856 32.2329 24.2889 32.6899C25.3922 33.1469 26.5747 33.3821 27.7689 33.3821C28.9631 33.3821 30.1455 33.1469 31.2488 32.6899C32.3521 32.2329 33.3546 31.5631 34.199 30.7187C35.0434 29.8743 35.7132 28.8718 36.1702 27.7685C36.6272 26.6652 36.8624 25.4828 36.8624 24.2886C36.8624 21.8768 35.9044 19.5638 34.199 17.8584C32.4936 16.1531 30.1806 15.195 27.7689 15.195ZM19.9014 16.4211C21.988 14.3346 24.818 13.1624 27.7689 13.1624C30.7197 13.1624 33.5497 14.3346 35.6363 16.4211C37.7229 18.5077 38.8951 21.3377 38.8951 24.2886C38.8951 25.7497 38.6073 27.1965 38.0482 28.5464C37.489 29.8963 36.6695 31.1228 35.6363 32.156C34.6031 33.1892 33.3766 34.0087 32.0267 34.5679C30.6768 35.127 29.23 35.4148 27.7689 35.4148C26.3078 35.4148 24.8609 35.127 23.511 34.5679C22.1612 34.0087 20.9346 33.1892 19.9014 32.156C18.8683 31.1228 18.0487 29.8963 17.4896 28.5464C16.9304 27.1965 16.6427 25.7497 16.6427 24.2886C16.6427 21.3377 17.8149 18.5077 19.9014 16.4211Z" fill="#1E1E1E"/>
<path fill-rule="evenodd" clip-rule="evenodd" d="M37.5082 27.7908L42.7593 33.0419C44.2385 34.5211 43.3964 37.0542 41.326 37.3533L38.5686 37.7516C38.3412 37.7845 38.1641 37.9658 38.1367 38.194L37.841 40.6546C37.5881 42.7594 35.0207 43.6472 33.5217 42.1481L26.4261 35.0526L27.8634 33.6153L34.959 40.7108C35.2588 41.0106 35.7723 40.8331 35.8229 40.4121L36.1185 37.9514C36.2556 36.8109 37.1409 35.9041 38.2779 35.7399L41.0354 35.3415C41.4495 35.2817 41.6179 34.7751 41.322 34.4792L36.0709 29.2281L37.5082 27.7908Z" fill="#1E1E1E"/>
<path fill-rule="evenodd" clip-rule="evenodd" d="M19.4663 29.2281L14.2151 34.4792C13.9193 34.7751 14.0877 35.2817 14.5018 35.3415L17.2592 35.7399C18.3962 35.9041 19.2816 36.8109 19.4186 37.9514L19.7143 40.4121C19.7649 40.8331 20.2784 41.0106 20.5782 40.7108L27.6737 33.6153L29.111 35.0526L22.0155 42.1481C20.5164 43.6472 17.9491 42.7594 17.6962 40.6546L17.4005 38.194C17.3731 37.9658 17.196 37.7845 16.9686 37.7516L14.2112 37.3533C12.1407 37.0542 11.2986 34.5211 12.7778 33.0419L18.029 27.7908L19.4663 29.2281Z" fill="#1E1E1E"/>
<path d="M27.515 19.5625C27.6283 19.3681 27.9092 19.3681 28.0224 19.5625L29.1497 21.498C29.3955 21.9199 29.8072 22.2191 30.2844 22.3224L32.4735 22.7964C32.6934 22.844 32.7802 23.1112 32.6303 23.279L31.1379 24.9492C30.8126 25.3133 30.6553 25.7974 30.7045 26.2831L30.9302 28.5116C30.9528 28.7354 30.7256 28.9006 30.5196 28.8098L28.47 27.9066C28.0232 27.7097 27.5142 27.7097 27.0675 27.9066L25.0178 28.8098C24.8119 28.9006 24.5846 28.7354 24.6073 28.5116L24.8329 26.2831C24.8821 25.7974 24.7248 25.3133 24.3995 24.9492L22.9071 23.279C22.7572 23.1112 22.844 22.844 23.0639 22.7964L25.253 22.3224C25.7302 22.2191 26.142 21.9199 26.3877 21.498L27.515 19.5625Z" stroke="#1E1E1E" stroke-width="1.44544"/>
</svg>
