<svg width="61" height="61" viewBox="0 0 61 61" fill="none" xmlns="http://www.w3.org/2000/svg">
<path d="M30.5226 60.7952C24.2365 60.7952 13.7157 60.7952 7.10122 54.2541C0.523438 47.748 0.523438 37.1372 0.523438 30.796C0.523438 24.4549 0.523436 13.8425 7.10455 7.33633C13.7173 0.796878 24.2365 0.796875 30.5226 0.796875C36.8087 0.796875 47.4762 0.796875 53.9823 7.37466C60.5234 13.9891 60.5234 24.5099 60.5234 30.7977C60.5218 37.0872 60.5184 47.6113 53.9823 54.2191C47.4745 60.7969 36.8621 60.7969 30.5226 60.7969V60.7952Z" fill="#93D500" fill-opacity="0.7"/>
<path fill-rule="evenodd" clip-rule="evenodd" d="M30.5229 16.7363C27.8533 16.7363 25.293 17.7968 23.4053 19.6846C21.5175 21.5723 20.457 24.1326 20.457 26.8022C20.457 28.1241 20.7174 29.433 21.2233 30.6543C21.7291 31.8756 22.4706 32.9852 23.4053 33.9199C24.34 34.8546 25.4496 35.5961 26.6709 36.1019C27.8921 36.6078 29.2011 36.8682 30.5229 36.8682C31.8448 36.8682 33.1538 36.6078 34.375 36.1019C35.5963 35.5961 36.7059 34.8546 37.6406 33.9199C38.5753 32.9852 39.3168 31.8756 39.8226 30.6543C40.3285 29.433 40.5889 28.1241 40.5889 26.8022C40.5889 24.1326 39.5283 21.5723 37.6406 19.6846C35.7529 17.7968 33.1926 16.7363 30.5229 16.7363ZM21.8143 18.0936C24.124 15.7839 27.2566 14.4863 30.5229 14.4863C33.7893 14.4863 36.9219 15.7839 39.2316 18.0936C41.5413 20.4033 42.8389 23.5359 42.8389 26.8022C42.8389 28.4196 42.5203 30.0211 41.9014 31.5153C41.2824 33.0096 40.3752 34.3673 39.2316 35.5109C38.088 36.6545 36.7303 37.5617 35.236 38.1807C33.7418 38.7996 32.1403 39.1182 30.5229 39.1182C28.9056 39.1182 27.3041 38.7996 25.8098 38.1807C24.3156 37.5617 22.9579 36.6545 21.8143 35.5109C20.6706 34.3673 19.7635 33.0096 19.1445 31.5153C18.5256 30.0211 18.207 28.4196 18.207 26.8022C18.207 23.5359 19.5046 20.4033 21.8143 18.0936Z" fill="#1E1E1E"/>
<path fill-rule="evenodd" clip-rule="evenodd" d="M41.3031 30.6777L47.1158 36.4904C48.7532 38.1278 47.821 40.9317 45.5292 41.2627L42.4769 41.7037C42.2252 41.74 42.0292 41.9408 41.9988 42.1933L41.6715 44.9171C41.3916 47.247 38.5497 48.2296 36.8904 46.5703L29.0361 38.716L30.6271 37.125L38.4814 44.9793C38.8132 45.3112 39.3816 45.1146 39.4376 44.6487L39.7649 41.9249C39.9166 40.6623 40.8966 39.6586 42.1552 39.4768L45.2075 39.0359C45.6659 38.9696 45.8523 38.4089 45.5248 38.0814L39.7121 32.2687L41.3031 30.6777Z" fill="#1E1E1E"/>
<path fill-rule="evenodd" clip-rule="evenodd" d="M21.3321 32.2687L15.5194 38.0814C15.1919 38.4089 15.3784 38.9696 15.8367 39.0359L18.889 39.4768C20.1476 39.6586 21.1276 40.6623 21.2793 41.9249L21.6066 44.6487C21.6626 45.1146 22.231 45.3112 22.5628 44.9793L30.4171 37.125L32.0081 38.716L24.1538 46.5703C22.4945 48.2296 19.6526 47.247 19.3727 44.9171L19.0454 42.1933C19.015 41.9408 18.819 41.74 18.5673 41.7037L15.515 41.2627C13.2232 40.9317 12.2911 38.1278 13.9284 36.4904L19.7411 30.6777L21.3321 32.2687Z" fill="#1E1E1E"/>
<path d="M30.8036 21.5708L32.0515 23.7132C32.3235 24.1802 32.7793 24.5114 33.3075 24.6258L35.7307 25.1505C35.9741 25.2032 36.0702 25.4989 35.9042 25.6847L34.2523 27.5335C33.8922 27.9365 33.7181 28.4723 33.7725 29.01L34.0223 31.4767C34.0474 31.7246 33.7958 31.9073 33.5679 31.8069L31.2991 30.8071C30.8045 30.5892 30.2411 30.5892 29.7465 30.8071L27.4777 31.8069C27.2498 31.9073 26.9982 31.7246 27.0233 31.4767L27.2731 29.01C27.3275 28.4723 27.1534 27.9365 26.7933 27.5335L25.1414 25.6847C24.9754 25.4989 25.0715 25.2032 25.3149 25.1505L27.7381 24.6258C28.2663 24.5114 28.7221 24.1802 28.9941 23.7132L30.242 21.5708C30.3673 21.3556 30.6783 21.3556 30.8036 21.5708Z" stroke="#1E1E1E" stroke-width="1.6"/>
</svg>
