<svg width="60" height="61" viewBox="0 0 60 61" fill="none" xmlns="http://www.w3.org/2000/svg">
<path d="M29.9992 60.7952C23.713 60.7952 13.1922 60.7952 6.57779 54.2541C0 47.748 0 37.1372 0 30.796C0 24.4549 -1.90719e-06 13.8425 6.58112 7.33633C13.1939 0.796878 23.713 0.796875 29.9992 0.796875C36.2853 0.796875 46.9528 0.796875 53.4589 7.37466C60 13.9891 60 24.5099 60 30.7977C59.9983 37.0872 59.995 47.6113 53.4589 54.2191C46.9511 60.7969 36.3386 60.7969 29.9992 60.7969V60.7952Z" fill="#93D500"/>
<path d="M43.5674 22.2662C43.2121 22.2662 42.9011 22.0229 42.8108 21.6745C42.5462 20.6532 41.7475 19.8545 40.7265 19.59C40.3779 19.4999 40.1346 19.1887 40.1346 18.8333C40.1346 18.4779 40.3779 18.1669 40.7262 18.0766C41.7475 17.812 42.5462 17.0133 42.8108 15.9921C42.9011 15.6437 43.2121 15.4004 43.5674 15.4004C43.9228 15.4004 44.2341 15.6437 44.3244 15.9921C44.5887 17.0133 45.3874 17.812 46.4086 18.0766C46.757 18.1669 47.0006 18.4779 47.0006 18.8333C47.0006 19.1884 46.7573 19.4997 46.4089 19.59C45.3874 19.8545 44.5887 20.6532 44.3244 21.6745C44.2338 22.0229 43.9228 22.2662 43.5674 22.2662ZM42.2741 18.8333C42.7939 19.1651 43.2357 19.6068 43.5674 20.1266C43.8992 19.6068 44.341 19.1651 44.8608 18.8333C44.341 18.5015 43.8992 18.0598 43.5674 17.5399C43.2357 18.0598 42.7939 18.5015 42.2741 18.8333Z" fill="#1E1E1E"/>
<path fill-rule="evenodd" clip-rule="evenodd" d="M23.6515 21.9414C23.2957 21.9414 22.9591 22.1036 22.7374 22.3819L17.1866 29.3499C16.8298 29.7978 16.8501 30.4382 17.2345 30.8627L29.3222 44.2087C29.7862 44.7209 30.5908 44.7209 31.0548 44.2087L43.1258 30.8812C43.5143 30.4523 43.5304 29.8037 43.1638 29.3561L37.4414 22.3696C37.2194 22.0986 36.8876 21.9414 36.5372 21.9414H23.6515ZM21.2415 21.1903C21.8261 20.4564 22.7133 20.0289 23.6515 20.0289H36.5372C37.4608 20.0289 38.3357 20.4432 38.921 21.1577L44.6433 28.1442C45.61 29.3244 45.5675 31.0344 44.5433 32.1651L32.4723 45.4926C31.2492 46.843 29.1278 46.843 27.9047 45.4926L15.817 32.1466C14.8035 31.0276 14.7501 29.3391 15.6908 28.1582L21.2415 21.1903Z" fill="#1E1E1E"/>
<path fill-rule="evenodd" clip-rule="evenodd" d="M44.437 30.6412H15.6903V28.7287H44.437V30.6412Z" fill="#1E1E1E"/>
<path fill-rule="evenodd" clip-rule="evenodd" d="M23.0607 29.2089L26.7939 20.7959L28.542 21.5716L24.8089 29.9846C24.6765 30.2828 24.6749 30.6228 24.8043 30.9222L31.2176 45.7645L29.462 46.5231L23.0487 31.6808C22.7075 30.8913 22.7119 29.9951 23.0607 29.2089Z" fill="#1E1E1E"/>
<path fill-rule="evenodd" clip-rule="evenodd" d="M37.3622 29.2089L33.6291 20.7959L31.881 21.5716L35.6141 29.9846C35.7464 30.2828 35.7481 30.6228 35.6187 30.9222L29.2054 45.7645L30.961 46.5231L37.3743 31.6808C37.7155 30.8913 37.7111 29.9951 37.3622 29.2089Z" fill="#1E1E1E"/>
</svg>
