<svg width="55" height="56" viewBox="0 0 55 56" fill="none" xmlns="http://www.w3.org/2000/svg">
<path d="M27.4992 55.1277C21.8068 55.1277 12.2796 55.1277 6.28986 49.2044C0.333313 43.3127 0.333313 33.7041 0.333313 27.9618C0.333313 22.2195 0.333311 12.6094 6.29288 6.71774C12.2811 0.795901 21.8068 0.795898 27.4992 0.795898C33.1917 0.795898 42.8516 0.795898 48.7433 6.75245C54.6666 12.7422 54.6666 22.2694 54.6666 27.9633C54.6651 33.6588 54.6621 43.1889 48.7433 49.1727C42.8501 55.1292 33.24 55.1292 27.4992 55.1292V55.1277Z" fill="white"/>
<g clip-path="url(#clip0_5949_64858)">
<path d="M39.7853 20.2377C39.4634 20.2377 39.1818 20.0174 39.1001 19.7019C38.8605 18.7771 38.1372 18.0539 37.2126 17.8143C36.8969 17.7328 36.6766 17.4509 36.6766 17.1291C36.6766 16.8072 36.8969 16.5256 37.2124 16.4439C38.1372 16.2043 38.8605 15.481 39.1001 14.5562C39.1818 14.2407 39.4634 14.0204 39.7853 14.0204C40.1071 14.0204 40.389 14.2407 40.4707 14.5562C40.7101 15.481 41.4333 16.2043 42.3581 16.4439C42.6736 16.5256 42.8942 16.8072 42.8942 17.1291C42.8942 17.4506 42.6738 17.7325 42.3584 17.8143C41.4333 18.0539 40.7101 18.7771 40.4707 19.7019C40.3887 20.0174 40.1071 20.2377 39.7853 20.2377ZM38.614 17.1291C39.0848 17.4295 39.4848 17.8295 39.7853 18.3003C40.0857 17.8295 40.4857 17.4295 40.9565 17.1291C40.4857 16.8286 40.0857 16.4286 39.7853 15.9578C39.4848 16.4286 39.0848 16.8286 38.614 17.1291Z" fill="#1E1E1E"/>
<path fill-rule="evenodd" clip-rule="evenodd" d="M21.7503 19.9436C21.428 19.9436 21.1233 20.0905 20.9225 20.3426L15.896 26.6524C15.5729 27.058 15.5912 27.638 15.9394 28.0224L26.8854 40.1079C27.3056 40.5718 28.0342 40.5718 28.4543 40.1079L39.3854 28.0391C39.7371 27.6507 39.7517 27.0634 39.4197 26.658L34.2378 20.3314C34.0368 20.086 33.7363 19.9436 33.419 19.9436H21.7503ZM19.5679 19.2635C20.0973 18.5989 20.9007 18.2118 21.7503 18.2118H33.419C34.2554 18.2118 35.0476 18.587 35.5776 19.234L40.7595 25.5606C41.6349 26.6294 41.5964 28.1778 40.669 29.2017L29.738 41.2705C28.6304 42.4934 26.7094 42.4934 25.6018 41.2705L14.6557 29.185C13.738 28.1717 13.6895 26.6426 14.5414 25.5733L19.5679 19.2635Z" fill="#1E1E1E"/>
<path fill-rule="evenodd" clip-rule="evenodd" d="M40.5726 27.8218H14.541V26.0899H40.5726V27.8218Z" fill="#1E1E1E"/>
<path fill-rule="evenodd" clip-rule="evenodd" d="M21.2153 26.5248L24.5958 18.9063L26.1789 19.6088L22.7983 27.2272C22.6785 27.4972 22.677 27.8051 22.7942 28.0763L28.6018 41.5167L27.012 42.2037L21.2044 28.7632C20.8954 28.0482 20.8994 27.2367 21.2153 26.5248Z" fill="#1E1E1E"/>
<path fill-rule="evenodd" clip-rule="evenodd" d="M34.1661 26.5248L30.7856 18.9063L29.2025 19.6088L32.5831 27.2272C32.7029 27.4972 32.7044 27.8051 32.5872 28.0763L26.7796 41.5167L28.3694 42.2037L34.177 28.7632C34.486 28.0482 34.482 27.2367 34.1661 26.5248Z" fill="#1E1E1E"/>
</g>
<defs>
<clipPath id="clip0_5949_64858">
<rect width="30.7889" height="30.7889" fill="white" transform="translate(12.1055 12.5681)"/>
</clipPath>
</defs>
</svg>
