<svg width="30" height="19" viewBox="0 0 30 19" fill="none" xmlns="http://www.w3.org/2000/svg">
<mask id="mask0_829_3137" style="mask-type:alpha" maskUnits="userSpaceOnUse" x="0" y="0" width="30" height="19">
<rect y="0.855469" width="29.3208" height="17.4582" rx="1.07212" fill="#D9D9D9"/>
</mask>
<g mask="url(#mask0_829_3137)">
<rect x="-3.50781" y="-1.48242" width="36.3094" height="21.9466" fill="url(#paint0_linear_829_3137)"/>
<circle cx="17.3746" cy="1.79649" r="5.31962" stroke="#B4E2FC" stroke-width="2.68031"/>
<circle cx="4.26524" cy="14.5211" r="5.31962" stroke="#82CBEA" stroke-width="2.68031"/>
<rect x="20.832" y="-1.48242" width="11.9681" height="21.9466" fill="#31B2E8"/>
<path opacity="0.92" fill-rule="evenodd" clip-rule="evenodd" d="M29.3828 22.1832C28.6223 22.8522 27.6245 23.2579 26.532 23.2579C24.147 23.2579 22.2136 21.3245 22.2136 18.9395C22.2136 16.5545 24.147 14.6211 26.532 14.6211C26.7954 14.6211 27.0532 14.6447 27.3036 14.6898V16.9062C27.0638 16.8152 26.8037 16.7653 26.532 16.7653C25.3313 16.7653 24.3579 17.7387 24.3579 18.9395C24.3579 20.1402 25.3313 21.1136 26.532 21.1136C26.8037 21.1136 27.0638 21.0638 27.3036 20.9727V22.1832H29.3828Z" fill="#2AE0CF"/>
<path fill-rule="evenodd" clip-rule="evenodd" d="M20.7695 7.47093C22.7986 6.32971 24.1694 4.15604 24.1694 1.66222C24.1694 -0.831592 22.7986 -3.00526 20.7695 -4.14648V-0.620663C21.2229 0.0255956 21.489 0.812832 21.489 1.66222C21.489 2.51162 21.2229 3.29885 20.7695 3.94511V7.47093Z" fill="#33CD9F"/>
<path d="M0.973009 4.72869C0.973009 5.32099 0.492861 5.80113 -0.0994328 5.80113C-0.691726 5.80113 -1.17188 5.32099 -1.17188 4.72869C-1.17188 4.1364 -0.691726 3.65625 -0.0994328 3.65625C0.492861 3.65625 0.973009 4.1364 0.973009 4.72869Z" fill="#1A506C"/>
<path d="M0.973009 7.94744C0.973009 8.53974 0.492861 9.01988 -0.0994328 9.01988C-0.691726 9.01988 -1.17188 8.53974 -1.17188 7.94744C-1.17188 7.35515 -0.691726 6.875 -0.0994328 6.875C0.492861 6.875 0.973009 7.35515 0.973009 7.94744Z" fill="#1A506C"/>
<path d="M0.973009 11.1662C0.973009 11.7585 0.492861 12.2386 -0.0994328 12.2386C-0.691726 12.2386 -1.17188 11.7585 -1.17188 11.1662C-1.17188 10.5739 -0.691726 10.0938 -0.0994328 10.0938C0.492861 10.0938 0.973009 10.5739 0.973009 11.1662Z" fill="#1A506C"/>
<path d="M0.973009 14.3849C0.973009 14.9772 0.492861 15.4574 -0.0994328 15.4574C-0.691726 15.4574 -1.17188 14.9772 -1.17188 14.3849C-1.17188 13.7926 -0.691726 13.3125 -0.0994328 13.3125C0.492861 13.3125 0.973009 13.7926 0.973009 14.3849Z" fill="#1A506C"/>
<path d="M30.3675 4.72869C30.3675 5.32099 29.8874 5.80113 29.2951 5.80113C28.7028 5.80113 28.2227 5.32099 28.2227 4.72869C28.2227 4.1364 28.7028 3.65625 29.2951 3.65625C29.8874 3.65625 30.3675 4.1364 30.3675 4.72869Z" fill="#1A506C"/>
<path d="M30.3675 7.94744C30.3675 8.53974 29.8874 9.01988 29.2951 9.01988C28.7028 9.01988 28.2227 8.53974 28.2227 7.94744C28.2227 7.35515 28.7028 6.875 29.2951 6.875C29.8874 6.875 30.3675 7.35515 30.3675 7.94744Z" fill="#1A506C"/>
<path d="M30.3675 11.1662C30.3675 11.7585 29.8874 12.2386 29.2951 12.2386C28.7028 12.2386 28.2227 11.7585 28.2227 11.1662C28.2227 10.5739 28.7028 10.0938 29.2951 10.0938C29.8874 10.0938 30.3675 10.5739 30.3675 11.1662Z" fill="#1A506C"/>
<path d="M30.3675 14.3849C30.3675 14.9772 29.8874 15.4574 29.2951 15.4574C28.7028 15.4574 28.2227 14.9772 28.2227 14.3849C28.2227 13.7926 28.7028 13.3125 29.2951 13.3125C29.8874 13.3125 30.3675 13.7926 30.3675 14.3849Z" fill="#1A506C"/>
<path d="M17.6715 8.02098L17.3107 11.3456L14.6119 9.37086L17.6715 8.02098Z" fill="white"/>
<path d="M23.4251 11.0424L25.1676 12.7459L22.821 13.4032L23.4251 11.0424Z" fill="white"/>
<path d="M15.0579 13.6264L16.8004 15.3299L14.4539 15.9872L15.0579 13.6264Z" fill="#82CBEA"/>
</g>
<g style="mix-blend-mode:luminosity">
<circle cx="12.6239" cy="7.49888" r="0.936383" fill="#C98500"/>
<mask id="mask1_829_3137" style="mask-type:alpha" maskUnits="userSpaceOnUse" x="11" y="6" width="3" height="3">
<circle cx="12.6278" cy="7.49888" r="0.936383" fill="#C98500"/>
</mask>
<g mask="url(#mask1_829_3137)">
<path d="M12.627 6.32031L12.6505 7.04882L12.7501 6.32676L12.6973 7.05374L12.8718 6.34605L12.7434 7.06353L12.9909 6.37796L12.7882 7.07808L13.106 6.42213L12.8312 7.09723L13.2158 6.4781L12.872 7.12078L13.3192 6.54524L12.9101 7.14846L13.415 6.62282L12.9451 7.17996L13.5022 6.70999L12.9766 7.21496L13.5798 6.8058L13.0043 7.25305L13.6469 6.90919L13.0278 7.29383L13.7029 7.01903L13.047 7.33685L13.7471 7.13412L13.0615 7.38163L13.779 7.2532L13.0713 7.42769L13.7983 7.37496L13.0762 7.47452L13.8047 7.49806L13.0762 7.52161L13.7983 7.62117L13.0713 7.56844L13.779 7.74293L13.0615 7.6145L13.7471 7.86201L13.047 7.65928L13.7029 7.9771L13.0278 7.7023L13.6469 8.08694L13.0043 7.74308L13.5798 8.19033L12.9766 7.78117L13.5022 8.28613L12.9451 7.81616L13.415 8.3733L12.9101 7.84767L13.3192 8.45088L12.872 7.87535L13.2158 8.51803L12.8312 7.89889L13.106 8.57399L12.7882 7.91805L12.9909 8.61817L12.7434 7.9326L12.8718 8.65008L12.6973 7.94239L12.7501 8.66936L12.6505 7.94731L12.627 8.67582L12.6034 7.94731L12.5039 8.66936L12.5566 7.94239L12.3821 8.65008L12.5105 7.9326L12.263 8.61817L12.4658 7.91805L12.1479 8.57399L12.4227 7.89889L12.0381 8.51803L12.382 7.87535L11.9347 8.45088L12.3439 7.84767L11.8389 8.3733L12.3089 7.81616L11.7517 8.28613L12.2774 7.78117L11.6741 8.19033L12.2497 7.74308L11.607 8.08694L12.2261 7.7023L11.551 7.9771L12.207 7.65928L11.5069 7.86201L12.1924 7.6145L11.475 7.74293L12.1826 7.56844L11.4557 7.62117L12.1777 7.52161L11.4492 7.49806L12.1777 7.47452L11.4557 7.37496L12.1826 7.42769L11.475 7.2532L12.1924 7.38163L11.5069 7.13412L12.207 7.33685L11.551 7.01903L12.2261 7.29383L11.607 6.90919L12.2497 7.25305L11.6741 6.8058L12.2774 7.21496L11.7517 6.70999L12.3089 7.17996L11.8389 6.62282L12.3439 7.14846L11.9347 6.54524L12.382 7.12078L12.0381 6.4781L12.4227 7.09723L12.1479 6.42213L12.4658 7.07808L12.263 6.37796L12.5105 7.06353L12.3821 6.34605L12.5566 7.05374L12.5039 6.32676L12.6034 7.04882L12.627 6.32031Z" fill="#A54444"/>
</g>
<mask id="mask2_829_3137" style="mask-type:alpha" maskUnits="userSpaceOnUse" x="11" y="6" width="3" height="3">
<circle cx="12.627" cy="7.49839" r="0.936383" transform="rotate(15 12.627 7.49839)" fill="#C98500"/>
</mask>
<g mask="url(#mask2_829_3137)">
<path d="M12.9306 6.36147L12.7648 7.07124L13.0478 6.39956L12.8087 7.08812L13.1605 6.4497L12.8507 7.10949L13.2672 6.51134L12.8902 7.13514L13.3669 6.5838L12.9268 7.16477L13.4586 6.66629L12.9601 7.19807L13.541 6.7579L12.9897 7.23466L13.6135 6.85764L13.0154 7.27415L13.6751 6.9644L13.0367 7.31611L13.7253 7.07702L13.0536 7.36007L13.7634 7.19426L13.0658 7.40555L13.789 7.31484L13.0732 7.45206L13.8019 7.43745L13.0756 7.49909L13.8019 7.56072L13.0732 7.54611L13.789 7.68333L13.0658 7.59262L13.7634 7.80391L13.0536 7.6381L13.7253 7.92115L13.0367 7.68206L13.6751 8.03377L13.0154 7.72402L13.6135 8.14053L12.9897 7.76351L13.541 8.24027L12.9601 7.8001L13.4586 8.33188L12.9268 7.8334L13.3669 8.41437L12.8902 7.86303L13.2672 8.48683L12.8507 7.88868L13.1605 8.54847L12.8087 7.91005L13.0478 8.59861L12.7648 7.92693L12.9306 8.63671L12.7193 7.93912L12.81 8.66234L12.6728 7.94648L12.6874 8.67522L12.6258 7.94895L12.5641 8.67522L12.5787 7.94648L12.4415 8.66234L12.5322 7.93912L12.3209 8.63671L12.4867 7.92693L12.2037 8.59861L12.4428 7.91005L12.0911 8.54847L12.4008 7.88868L11.9843 8.48683L12.3613 7.86303L11.8846 8.41437L12.3247 7.8334L11.793 8.33188L12.2915 7.8001L11.7105 8.24027L12.2618 7.76351L11.638 8.14053L12.2362 7.72402L11.5764 8.03377L12.2148 7.68206L11.5262 7.92115L12.1979 7.6381L11.4881 7.80391L12.1857 7.59262L11.4625 7.68333L12.1784 7.54611L11.4496 7.56072L12.1759 7.49909L11.4496 7.43745L12.1784 7.45206L11.4625 7.31484L12.1857 7.40555L11.4881 7.19426L12.1979 7.36007L11.5262 7.07702L12.2148 7.31611L11.5764 6.9644L12.2362 7.27416L11.638 6.85764L12.2618 7.23466L11.7105 6.7579L12.2915 7.19807L11.793 6.66629L12.3247 7.16477L11.8846 6.5838L12.3613 7.13514L11.9843 6.51134L12.4008 7.10949L12.0911 6.4497L12.4428 7.08812L12.2037 6.39956L12.4867 7.07124L12.3209 6.36147L12.5322 7.05906L12.4415 6.33583L12.5787 7.05169L12.5641 6.32295L12.6258 7.04922L12.6874 6.32295L12.6728 7.05169L12.81 6.33583L12.7193 7.05905L12.9306 6.36147Z" fill="#A54444"/>
</g>
<path opacity="0.6" fill-rule="evenodd" clip-rule="evenodd" d="M12.6079 8.39626C13.125 8.39626 13.5443 7.97703 13.5443 7.45988C13.5443 7.35867 13.5282 7.26122 13.4985 7.16992C13.5366 7.27194 13.5575 7.38239 13.5575 7.49771C13.5575 8.01486 13.1382 8.43409 12.6211 8.43409C12.2051 8.43409 11.8525 8.16289 11.7305 7.78767C11.8633 8.14315 12.206 8.39626 12.6079 8.39626Z" fill="#D8DC1F"/>
<circle cx="12.6235" cy="7.49851" r="0.850076" fill="#F5B200"/>
<circle cx="12.6225" cy="7.49941" r="0.630273" fill="#C94800"/>
<circle cx="12.6211" cy="7.49815" r="0.635363" transform="rotate(45 12.6211 7.49815)" fill="url(#paint1_linear_829_3137)"/>
<circle opacity="0.8" cx="12.6211" cy="7.49916" r="0.662124" transform="rotate(-135 12.6211 7.49916)" fill="url(#paint2_linear_829_3137)"/>
<circle opacity="0.8" cx="12.6211" cy="7.49855" r="0.846242" transform="rotate(-135 12.6211 7.49855)" fill="url(#paint3_linear_829_3137)"/>
<circle opacity="0.8" cx="12.6211" cy="7.4995" r="0.846242" transform="rotate(45 12.6211 7.4995)" fill="url(#paint4_linear_829_3137)"/>
<circle opacity="0.8" cx="12.6237" cy="7.49805" r="0.813917" transform="rotate(-45 12.6237 7.49805)" fill="url(#paint5_linear_829_3137)"/>
<circle cx="12.6239" cy="7.49889" r="0.644978" stroke="#B46100" stroke-width="0.0281299"/>
<path opacity="0.6" fill-rule="evenodd" clip-rule="evenodd" d="M12.8322 8.28049C13.2812 8.16018 13.5477 7.69866 13.4274 7.24966C13.4038 7.16181 13.3672 7.08094 13.3202 7.0086C13.3771 7.0883 13.4209 7.17934 13.4477 7.27946C13.568 7.72846 13.3015 8.18998 12.8525 8.31029C12.4914 8.40706 12.1221 8.2536 11.9289 7.9562C12.1269 8.23394 12.4833 8.37397 12.8322 8.28049Z" fill="#FDFF90"/>
<g opacity="0.8" filter="url(#filter0_f_829_3137)">
<ellipse cx="12.3911" cy="7.13848" rx="0.272813" ry="0.192965" transform="rotate(-29.6021 12.3911 7.13848)" fill="white"/>
</g>
<path opacity="0.3" fill-rule="evenodd" clip-rule="evenodd" d="M13.4255 7.03351C13.4255 7.0335 13.4255 7.03349 13.4255 7.03349C13.1684 6.58824 12.5991 6.43569 12.1538 6.69275C11.7086 6.94981 11.556 7.51914 11.8131 7.96439C11.8131 7.96439 11.8131 7.9644 11.8131 7.96441L13.4255 7.03351Z" fill="white"/>
<path fill-rule="evenodd" clip-rule="evenodd" d="M12.5227 7.43781V7.40287H12.3667V7.6373H12.456C12.47 7.6373 12.4826 7.63552 12.4936 7.63198C12.5047 7.62833 12.5141 7.62323 12.5218 7.61669C12.5296 7.61003 12.5354 7.6022 12.5394 7.59318C12.5435 7.58416 12.5456 7.57418 12.5456 7.56323C12.5456 7.54864 12.542 7.53592 12.5348 7.52508C12.5277 7.51424 12.5175 7.50581 12.5041 7.4998C12.4907 7.49368 12.4747 7.49062 12.456 7.49062H12.4125V7.43781H12.5227ZM12.4125 7.5254H12.456C12.4659 7.5254 12.4742 7.52706 12.4807 7.53039C12.4872 7.53372 12.4921 7.53823 12.4953 7.54391C12.4985 7.5496 12.5001 7.55594 12.5001 7.56291C12.5001 7.57 12.4985 7.57654 12.4953 7.58255C12.4921 7.58857 12.4872 7.5934 12.4807 7.59705C12.4742 7.60069 12.4659 7.60252 12.456 7.60252H12.4125V7.5254Z" fill="#C56B03"/>
<path d="M12.8076 7.64658V7.56518H12.8535C12.864 7.56518 12.8727 7.56694 12.8796 7.57045C12.8865 7.57396 12.8916 7.57872 12.895 7.58472C12.8984 7.59073 12.9001 7.59741 12.9001 7.60478C12.9001 7.61225 12.8984 7.61916 12.895 7.62551C12.8916 7.63185 12.8865 7.63695 12.8796 7.6408C12.8727 7.64465 12.864 7.64658 12.8535 7.64658H12.8076Z" fill="#C56B03"/>
<path fill-rule="evenodd" clip-rule="evenodd" d="M12.6548 7.33829C12.5558 7.32024 12.4558 7.32028 12.3807 7.32476C12.3432 7.327 12.3117 7.33036 12.2896 7.33317C12.2786 7.33458 12.2699 7.33585 12.2639 7.33677C12.2609 7.33723 12.2586 7.3376 12.257 7.33786L12.2552 7.33816L12.2548 7.33825L12.2546 7.33827L12.2422 7.34048V7.73067L12.26 7.72751L12.2601 7.7275L12.2605 7.72743L12.2621 7.72715C12.2636 7.72691 12.2658 7.72656 12.2686 7.72611C12.2744 7.72523 12.2828 7.72401 12.2936 7.72264C12.3151 7.7199 12.3458 7.71661 12.3826 7.71442C12.4563 7.71002 12.5536 7.71006 12.6493 7.7275C12.737 7.74349 12.8044 7.75239 12.8609 7.75505L12.8613 7.75506H12.9288L12.9293 7.75504C12.9682 7.75296 13.0026 7.74716 13.0372 7.73818L13.0484 7.73527V7.34452L13.0294 7.34946C12.938 7.37319 12.8487 7.37364 12.6548 7.33829ZM12.2724 7.69591V7.36514C12.2756 7.36467 12.2794 7.36412 12.2837 7.36353C12.2867 7.36312 12.29 7.36268 12.2936 7.36223C12.3151 7.3595 12.3458 7.35621 12.3826 7.35401C12.4544 7.34973 12.5487 7.34966 12.642 7.36581V7.69646C12.5472 7.68066 12.4525 7.68088 12.3807 7.68516C12.3432 7.6874 12.3117 7.69077 12.2896 7.69358C12.283 7.69442 12.2772 7.69521 12.2724 7.69591ZM12.9239 7.43586V7.47274H12.8076V7.52848H12.8535C12.8732 7.52848 12.8902 7.5317 12.9043 7.53816C12.9184 7.5445 12.9292 7.5534 12.9367 7.56484C12.9443 7.57628 12.9481 7.58971 12.9481 7.60511C12.9481 7.61667 12.9459 7.62721 12.9416 7.63672C12.9374 7.64624 12.9312 7.65451 12.923 7.66153C12.9149 7.66844 12.9049 7.67382 12.8933 7.67767C12.8816 7.68141 12.8683 7.68328 12.8535 7.68328H12.7593V7.43586H12.9239Z" fill="#C56B03"/>
<path fill-rule="evenodd" clip-rule="evenodd" d="M12.4836 7.39875V7.36381H12.3277V7.59823H12.4169C12.431 7.59823 12.4435 7.59646 12.4546 7.59292C12.4656 7.58927 12.475 7.58417 12.4828 7.57762C12.4905 7.57097 12.4964 7.56313 12.5004 7.55412C12.5045 7.5451 12.5065 7.53512 12.5065 7.52417C12.5065 7.50957 12.5029 7.49685 12.4957 7.48601C12.4886 7.47517 12.4784 7.46675 12.465 7.46074C12.4517 7.45462 12.4356 7.45156 12.4169 7.45156H12.3735V7.39875H12.4836ZM12.3735 7.48634H12.4169C12.4269 7.48634 12.4351 7.488 12.4416 7.49133C12.4482 7.49465 12.453 7.49916 12.4562 7.50485C12.4594 7.51054 12.4611 7.51687 12.4611 7.52385C12.4611 7.53093 12.4594 7.53748 12.4562 7.54349C12.453 7.5495 12.4482 7.55433 12.4416 7.55798C12.4351 7.56163 12.4269 7.56346 12.4169 7.56346H12.3735V7.48634Z" fill="url(#paint6_linear_829_3137)"/>
<path d="M12.7686 7.60751V7.52612H12.8145C12.825 7.52612 12.8337 7.52787 12.8405 7.53139C12.8474 7.5349 12.8526 7.53966 12.856 7.54566C12.8593 7.55166 12.861 7.55835 12.861 7.56571C12.861 7.57319 12.8593 7.5801 12.856 7.58644C12.8526 7.59279 12.8474 7.59788 12.8405 7.60174C12.8337 7.60559 12.825 7.60751 12.8145 7.60751H12.7686Z" fill="url(#paint7_linear_829_3137)"/>
<path fill-rule="evenodd" clip-rule="evenodd" d="M12.6158 7.29923C12.5168 7.28118 12.4167 7.28122 12.3417 7.2857C12.3041 7.28794 12.2727 7.2913 12.2506 7.29411C12.2395 7.29552 12.2308 7.29678 12.2248 7.2977C12.2218 7.29816 12.2195 7.29854 12.218 7.2988L12.2162 7.2991L12.2157 7.29918L12.2156 7.29921L12.2031 7.30141V7.69161L12.221 7.68845L12.221 7.68843L12.2214 7.68836L12.2231 7.68809C12.2245 7.68785 12.2267 7.68749 12.2296 7.68705C12.2353 7.68617 12.2437 7.68494 12.2545 7.68357C12.276 7.68084 12.3067 7.67755 12.3435 7.67535C12.4172 7.67096 12.5145 7.671 12.6102 7.68844C12.6979 7.70442 12.7653 7.71332 12.8218 7.71598L12.8222 7.716H12.8898L12.8902 7.71598C12.9291 7.71389 12.9635 7.7081 12.9981 7.69911L13.0093 7.6962V7.30546L12.9903 7.3104C12.8989 7.33413 12.8096 7.33458 12.6158 7.29923ZM12.2333 7.65684V7.32608C12.2365 7.3256 12.2403 7.32506 12.2447 7.32447C12.2477 7.32405 12.251 7.32362 12.2545 7.32317C12.276 7.32044 12.3067 7.31715 12.3435 7.31495C12.4153 7.31067 12.5096 7.31059 12.603 7.32675V7.6574C12.5082 7.64159 12.4135 7.64181 12.3417 7.6461C12.3041 7.64834 12.2727 7.6517 12.2506 7.65451C12.244 7.65535 12.2382 7.65615 12.2333 7.65684ZM12.8848 7.3968V7.43368H12.7686V7.48941H12.8145C12.8342 7.48941 12.8511 7.49264 12.8652 7.4991C12.8794 7.50544 12.8902 7.51434 12.8976 7.52578C12.9052 7.53722 12.909 7.55065 12.909 7.56605C12.909 7.57761 12.9068 7.58814 12.9025 7.59766C12.8983 7.60718 12.8921 7.61545 12.884 7.62247C12.8758 7.62938 12.8659 7.63476 12.8542 7.63861C12.8425 7.64235 12.8293 7.64422 12.8145 7.64422H12.7203V7.3968H12.8848Z" fill="url(#paint8_linear_829_3137)"/>
</g>
<path d="M20.8398 1.66211V17.4415" stroke="#6F7D8E" stroke-width="0.218879" stroke-dasharray="1.09 0.88"/>
<circle cx="5.9505" cy="6.49151" r="3.47003" fill="#C98500"/>
<mask id="mask3_829_3137" style="mask-type:alpha" maskUnits="userSpaceOnUse" x="2" y="3" width="8" height="7">
<circle cx="5.96221" cy="6.49151" r="3.47003" fill="#C98500"/>
</mask>
<g mask="url(#mask3_829_3137)">
<path d="M5.96214 2.12695L6.04939 4.82664L6.41835 2.15086L6.22293 4.84488L6.86957 2.22233L6.39361 4.88116L7.31084 2.34057L6.55957 4.93508L7.73734 2.50428L6.71898 5.00605L8.14438 2.71168L6.8701 5.0933L8.52752 2.9605L7.01127 5.19587L8.88255 3.24799L7.14095 5.31263L9.20558 3.57103L7.25771 5.44231L9.49308 3.92606L7.36028 5.58348L9.74189 4.3092L7.44752 5.7346L9.9493 4.71624L7.5185 5.89401L10.113 5.14274L7.57242 6.05996L10.2313 5.58401L7.6087 6.23065L10.3027 6.03522L7.62694 6.40419L10.3266 6.49144L7.62694 6.57869L10.3027 6.94765L7.6087 6.75223L10.2313 7.39886L7.57242 6.92291L10.113 7.84014L7.5185 7.08887L9.9493 8.26663L7.44752 7.24828L9.74189 8.67368L7.36028 7.3994L9.49308 9.05682L7.25771 7.54057L9.20558 9.41185L7.14095 7.67024L8.88255 9.73488L7.01127 7.78701L8.52752 10.0224L6.8701 7.88957L8.14438 10.2712L6.71898 7.97682L7.73734 10.4786L6.55957 8.0478L7.31084 10.6423L6.39361 8.10172L6.86957 10.7605L6.22293 8.138L6.41835 10.832L6.04939 8.15624L5.96214 10.8559L5.87489 8.15624L5.50593 10.832L5.70135 8.138L5.05471 10.7605L5.53067 8.10172L4.61344 10.6423L5.36471 8.0478L4.18694 10.4786L5.2053 7.97682L3.7799 10.2712L5.05418 7.88957L3.39676 10.0224L4.91301 7.78701L3.04173 9.73488L4.78333 7.67024L2.7187 9.41185L4.66657 7.54057L2.4312 9.05682L4.56401 7.3994L2.18239 8.67368L4.47676 7.24828L1.97499 8.26663L4.40578 7.08887L1.81127 7.84014L4.35186 6.92291L1.69303 7.39886L4.31558 6.75223L1.62157 6.94765L4.29734 6.57869L1.59766 6.49144L4.29734 6.40419L1.62157 6.03522L4.31558 6.23065L1.69303 5.58401L4.35186 6.05996L1.81127 5.14274L4.40578 5.89401L1.97499 4.71624L4.47676 5.7346L2.18239 4.3092L4.56401 5.58348L2.4312 3.92606L4.66657 5.44231L2.7187 3.57103L4.78333 5.31263L3.04173 3.24799L4.91301 5.19587L3.39676 2.9605L5.05418 5.0933L3.7799 2.71168L5.2053 5.00605L4.18694 2.50428L5.36471 4.93508L4.61344 2.34057L5.53067 4.88116L5.05471 2.22233L5.70135 4.84488L5.50593 2.15086L5.87489 4.82664L5.96214 2.12695Z" fill="#A54444"/>
</g>
<mask id="mask4_829_3137" style="mask-type:alpha" maskUnits="userSpaceOnUse" x="2" y="3" width="8" height="7">
<circle cx="5.96149" cy="6.49209" r="3.47003" transform="rotate(15 5.96149 6.49209)" fill="#C98500"/>
</mask>
<g mask="url(#mask4_829_3137)">
<path d="M7.09077 2.2761L6.47631 4.90637L7.52525 2.41727L6.63922 4.96891L7.94259 2.60308L6.7947 5.04813L8.33823 2.8315L6.94104 5.14316L8.70782 3.10002L7.07665 5.25298L9.04731 3.40571L7.20004 5.37637L9.353 3.74521L7.30986 5.51198L9.62152 4.1148L7.40489 5.65832L9.84994 4.51043L7.48411 5.8138L10.0358 4.92777L7.54665 5.97671L10.1769 5.36225L7.59181 6.14526L10.2719 5.80911L7.61911 6.31761L10.3197 6.26344L7.62824 6.49186L10.3197 6.72028L7.61911 6.66612L10.2719 7.17462L7.59181 6.83847L10.1769 7.62148L7.54665 7.00702L10.0358 8.05596L7.48411 7.16993L9.84994 8.4733L7.40489 7.32541L9.62152 8.86893L7.30986 7.47175L9.353 9.23852L7.20004 7.60736L9.04731 9.57802L7.07665 7.73075L8.70782 9.88371L6.94104 7.84056L8.33823 10.1522L6.7947 7.9356L7.94259 10.3806L6.63922 8.01482L7.52525 10.5665L6.47631 8.07736L7.09077 10.7076L6.30776 8.12252L6.64391 10.8026L6.13541 8.14982L6.18958 10.8504L5.96116 8.15895L5.73274 10.8504L5.7869 8.14982L5.2784 10.8026L5.61455 8.12252L4.83154 10.7076L5.446 8.07736L4.39707 10.5665L5.28309 8.01482L3.97972 10.3806L5.12761 7.9356L3.58409 10.1522L4.98127 7.84056L3.2145 9.88371L4.84566 7.73075L2.875 9.57802L4.72227 7.60736L2.56931 9.23852L4.61246 7.47175L2.30079 8.86893L4.51742 7.32541L2.07237 8.4733L4.4382 7.16993L1.88656 8.05596L4.37566 7.00702L1.74539 7.62148L4.3305 6.83847L1.65041 7.17462L4.3032 6.66612L1.60265 6.72028L4.29407 6.49186L1.60265 6.26344L4.3032 6.31761L1.65041 5.80911L4.3305 6.14526L1.74539 5.36225L4.37566 5.97671L1.88656 4.92777L4.4382 5.8138L2.07237 4.51043L4.51742 5.65832L2.30079 4.1148L4.61246 5.51198L2.56932 3.74521L4.72227 5.37637L2.875 3.40571L4.84566 5.25298L3.2145 3.10002L4.98127 5.14316L3.58409 2.8315L5.12761 5.04813L3.97972 2.60308L5.28309 4.96891L4.39707 2.41727L5.446 4.90637L4.83154 2.2761L5.61455 4.86121L5.2784 2.18111L5.7869 4.83391L5.73274 2.13336L5.96116 4.82478L6.18958 2.13336L6.13541 4.83391L6.64391 2.18111L6.30776 4.86121L7.09077 2.2761Z" fill="#A54444"/>
</g>
<path opacity="0.6" fill-rule="evenodd" clip-rule="evenodd" d="M5.89995 9.82176C7.81639 9.82176 9.36998 8.26818 9.36998 6.35174C9.36998 5.97674 9.31049 5.61563 9.20044 5.27734C9.34172 5.65538 9.41896 6.06465 9.41896 6.49196C9.41896 8.4084 7.86538 9.96198 5.94893 9.96198C4.40749 9.96198 3.10079 8.95691 2.64844 7.56636C3.14077 8.88375 4.41082 9.82176 5.89995 9.82176Z" fill="#D8DC1F"/>
<circle cx="5.95098" cy="6.49199" r="3.15019" fill="#F5B200"/>
<circle cx="5.94893" cy="6.4919" r="2.33565" fill="#C94800"/>
<circle cx="5.94922" cy="6.4919" r="2.35451" transform="rotate(45 5.94922 6.4919)" fill="url(#paint9_linear_829_3137)"/>
<circle opacity="0.8" cx="5.94922" cy="6.49286" r="2.45368" transform="rotate(-135 5.94922 6.49286)" fill="url(#paint10_linear_829_3137)"/>
<circle opacity="0.8" cx="5.94922" cy="6.49278" r="3.13598" transform="rotate(-135 5.94922 6.49278)" fill="url(#paint11_linear_829_3137)"/>
<circle opacity="0.8" cx="5.94922" cy="6.49159" r="3.13598" transform="rotate(45 5.94922 6.49159)" fill="url(#paint12_linear_829_3137)"/>
<circle opacity="0.8" cx="5.94914" cy="6.49219" r="3.0162" transform="rotate(-45 5.94914 6.49219)" fill="url(#paint13_linear_829_3137)"/>
<circle cx="5.95008" cy="6.4911" r="2.39015" stroke="#B46100" stroke-width="0.104243"/>
<path opacity="0.6" fill-rule="evenodd" clip-rule="evenodd" d="M6.71994 9.39205C8.38385 8.94621 9.37128 7.23592 8.92544 5.57201C8.83804 5.24585 8.70206 4.94568 8.52737 4.6772C8.73847 4.97289 8.9011 5.31075 9.00067 5.68235C9.44651 7.34625 8.45908 9.05654 6.79517 9.50239C5.45743 9.86083 4.0897 9.29284 3.3732 8.19169C4.10734 9.22001 5.42763 9.73832 6.71994 9.39205Z" fill="#FDFF90"/>
<g opacity="0.8" filter="url(#filter1_f_829_3137)">
<ellipse cx="5.09164" cy="5.1536" rx="1.01099" ry="0.715084" transform="rotate(-29.6021 5.09164 5.1536)" fill="white"/>
</g>
<path opacity="0.3" fill-rule="evenodd" clip-rule="evenodd" d="M8.92258 4.77022L2.9475 8.21993C1.99491 6.56997 2.56023 4.46017 4.2102 3.50756C5.86016 2.55496 7.96996 3.12027 8.92258 4.77022Z" fill="white"/>
<path fill-rule="evenodd" clip-rule="evenodd" d="M5.57849 6.26804V6.13856H5.00065V7.00728H5.33137C5.38342 7.00728 5.42993 7.00071 5.47091 6.98759C5.51189 6.97406 5.54673 6.95517 5.57541 6.93091C5.6041 6.90624 5.62583 6.87721 5.64058 6.8438C5.65574 6.81038 5.66332 6.77339 5.66332 6.73282C5.66332 6.67872 5.65 6.63159 5.62337 6.59142C5.59714 6.55124 5.55923 6.52002 5.50964 6.49774C5.46005 6.47507 5.40063 6.46373 5.33137 6.46373H5.17032V6.26804H5.57849ZM5.17032 6.59261H5.33137C5.36825 6.59261 5.39879 6.59877 5.42297 6.61111C5.44715 6.62344 5.46518 6.64014 5.47706 6.66122C5.48895 6.6823 5.49489 6.70577 5.49489 6.73163C5.49489 6.75788 5.48895 6.78214 5.47706 6.80442C5.46518 6.82669 5.44715 6.84459 5.42297 6.85812C5.39879 6.87164 5.36825 6.8784 5.33137 6.8784H5.17032V6.59261Z" fill="#C56B03"/>
<path d="M6.63453 7.04167V6.74004H6.80452C6.84345 6.74004 6.87568 6.74654 6.90119 6.75956C6.92671 6.77256 6.94575 6.7902 6.95829 6.81245C6.97083 6.8347 6.97711 6.85947 6.97711 6.88677C6.97711 6.91446 6.97083 6.94008 6.95829 6.96359C6.94575 6.9871 6.92671 7.00598 6.90119 7.02026C6.87568 7.03453 6.84345 7.04167 6.80452 7.04167H6.63453Z" fill="#C56B03"/>
<path fill-rule="evenodd" clip-rule="evenodd" d="M6.06823 5.89923C5.70131 5.83234 5.33057 5.83249 5.05248 5.84908C4.91323 5.85739 4.79671 5.86985 4.71487 5.88026C4.67394 5.88548 4.64166 5.89017 4.61952 5.89358C4.60844 5.89529 4.5999 5.89667 4.59408 5.89763L4.58741 5.89876L4.58565 5.89907L4.58516 5.89914L4.53906 5.90733V7.35332L4.60514 7.34159L4.60547 7.34154L4.60692 7.34127L4.61296 7.34026C4.61835 7.33936 4.62644 7.33806 4.63706 7.33641C4.65828 7.33315 4.68955 7.3286 4.72941 7.32353C4.80914 7.31339 4.92307 7.3012 5.05935 7.29307C5.33235 7.27677 5.69305 7.27693 6.04757 7.34155C6.3726 7.40079 6.62242 7.43378 6.83187 7.44363L6.83321 7.44369H7.08366L7.0852 7.44361C7.22935 7.43589 7.35685 7.41441 7.48515 7.38112L7.52664 7.37033V5.92233L7.45624 5.94061C7.11755 6.02855 6.78668 6.03022 6.06823 5.89923ZM4.65097 7.22448V5.99874C4.66286 5.99697 4.67693 5.99495 4.69302 5.99275C4.70419 5.99123 4.71634 5.98962 4.72941 5.98796C4.80914 5.97782 4.92307 5.96563 5.05935 5.95749C5.32548 5.94162 5.67494 5.94135 6.02078 6.00123V7.22652C5.66953 7.16796 5.31859 7.16878 5.05248 7.18466C4.91323 7.19296 4.79671 7.20543 4.71487 7.21584C4.69036 7.21895 4.66895 7.22189 4.65097 7.22448ZM7.06535 6.26081V6.39746H6.63453V6.60401H6.80452C6.87762 6.60401 6.94033 6.61598 6.99268 6.63991C7.04501 6.66341 7.08503 6.69637 7.11271 6.73878C7.14083 6.78117 7.15489 6.83092 7.15489 6.88801C7.15489 6.93084 7.14687 6.96989 7.13087 7.00514C7.1153 7.04041 7.09237 7.07106 7.0621 7.09709C7.03181 7.12269 6.99505 7.14264 6.9518 7.15691C6.90855 7.17077 6.85945 7.17769 6.80452 7.17769H6.45547V6.26081H7.06535Z" fill="#C56B03"/>
<path fill-rule="evenodd" clip-rule="evenodd" d="M5.43005 6.11764V5.98817H4.85221V6.85689H5.18293C5.23498 6.85689 5.2815 6.85032 5.32248 6.8372C5.36346 6.82367 5.39829 6.80478 5.42698 6.78051C5.45567 6.75585 5.47739 6.72682 5.49214 6.69341C5.5073 6.65999 5.51488 6.623 5.51488 6.58243C5.51488 6.52833 5.50156 6.4812 5.47493 6.44103C5.4487 6.40085 5.41079 6.36963 5.3612 6.34735C5.31161 6.32468 5.25219 6.31334 5.18293 6.31334H5.02188V6.11764H5.43005ZM5.02188 6.44222H5.18293C5.21981 6.44222 5.25035 6.44838 5.27453 6.46071C5.29871 6.47305 5.31674 6.48975 5.32862 6.51083C5.34051 6.53191 5.34645 6.55538 5.34645 6.58124C5.34645 6.60749 5.34051 6.63175 5.32862 6.65403C5.31674 6.6763 5.29871 6.6942 5.27453 6.70772C5.25035 6.72125 5.21981 6.72801 5.18293 6.72801H5.02188V6.44222Z" fill="url(#paint14_linear_829_3137)"/>
<path d="M6.4861 6.89128V6.58964H6.65608C6.69501 6.58964 6.72724 6.59615 6.75276 6.60917C6.77827 6.62217 6.79731 6.63981 6.80986 6.66206C6.82239 6.68431 6.82867 6.70908 6.82867 6.73637C6.82867 6.76407 6.82239 6.78969 6.80986 6.8132C6.79731 6.83671 6.77827 6.85559 6.75276 6.86987C6.72724 6.88414 6.69501 6.89128 6.65608 6.89128H6.4861Z" fill="url(#paint15_linear_829_3137)"/>
<path fill-rule="evenodd" clip-rule="evenodd" d="M5.91979 5.74884C5.55287 5.68195 5.18213 5.6821 4.90405 5.69869C4.76479 5.707 4.64827 5.71946 4.56643 5.72987C4.5255 5.73509 4.49322 5.73978 4.47108 5.74319C4.46001 5.7449 4.45147 5.74628 4.44564 5.74724L4.43898 5.74837L4.43721 5.74868L4.43673 5.74875L4.39062 5.75694V7.20293L4.4567 7.1912L4.45703 7.19115L4.45848 7.19088L4.46452 7.18987C4.46991 7.18897 4.47801 7.18767 4.48862 7.18602C4.50984 7.18276 4.54112 7.17821 4.58097 7.17314C4.6607 7.163 4.77463 7.15081 4.91091 7.14268C5.18392 7.12638 5.54461 7.12653 5.89913 7.19116C6.22416 7.2504 6.47398 7.28339 6.68343 7.29324L6.68477 7.2933H6.93522L6.93676 7.29322C7.08091 7.2855 7.20841 7.26402 7.33671 7.23073L7.3782 7.21994V5.77193L7.3078 5.79022C6.96911 5.87816 6.63824 5.87983 5.91979 5.74884ZM4.50253 7.07409V5.84835C4.51442 5.84658 4.52849 5.84456 4.54458 5.84236C4.55575 5.84084 4.5679 5.83923 4.58097 5.83757C4.6607 5.82743 4.77463 5.81524 4.91091 5.8071C5.17704 5.79123 5.52651 5.79096 5.87234 5.85084V7.07613C5.5211 7.01757 5.17015 7.01839 4.90405 7.03426C4.76479 7.04257 4.64827 7.05504 4.56643 7.06545C4.54192 7.06856 4.52052 7.0715 4.50253 7.07409ZM6.91691 6.11042V6.24707H6.4861V6.45362H6.65608C6.72918 6.45362 6.7919 6.46559 6.84424 6.48952C6.89657 6.51302 6.93659 6.54598 6.96427 6.58838C6.99239 6.63078 7.00645 6.68053 7.00645 6.73762C7.00645 6.78045 6.99843 6.8195 6.98243 6.85475C6.96686 6.89002 6.94394 6.92067 6.91366 6.9467C6.88338 6.9723 6.84662 6.99225 6.80337 7.00652C6.76011 7.02038 6.71101 7.0273 6.65608 7.0273H6.30703V6.11042H6.91691Z" fill="url(#paint16_linear_829_3137)"/>
<path opacity="0.9" d="M2.11261 1.06778L3.85512 2.77133L1.50855 3.42862L2.11261 1.06778Z" fill="white"/>
<defs>
<filter id="filter0_f_829_3137" x="11.976" y="6.76309" width="0.833203" height="0.751172" filterUnits="userSpaceOnUse" color-interpolation-filters="sRGB">
<feFlood flood-opacity="0" result="BackgroundImageFix"/>
<feBlend mode="normal" in="SourceGraphic" in2="BackgroundImageFix" result="shape"/>
<feGaussianBlur stdDeviation="0.080371" result="effect1_foregroundBlur_829_3137"/>
</filter>
<filter id="filter1_f_829_3137" x="3.54886" y="3.75979" width="3.08588" height="2.78705" filterUnits="userSpaceOnUse" color-interpolation-filters="sRGB">
<feFlood flood-opacity="0" result="BackgroundImageFix"/>
<feBlend mode="normal" in="SourceGraphic" in2="BackgroundImageFix" result="shape"/>
<feGaussianBlur stdDeviation="0.297837" result="effect1_foregroundBlur_829_3137"/>
</filter>
<linearGradient id="paint0_linear_829_3137" x1="14.6469" y1="-1.48242" x2="3.02031" y2="16.9019" gradientUnits="userSpaceOnUse">
<stop stop-color="#E4FCFF"/>
<stop offset="1" stop-color="#A5D8ED"/>
</linearGradient>
<linearGradient id="paint1_linear_829_3137" x1="12.6211" y1="6.86279" x2="12.6211" y2="8.13351" gradientUnits="userSpaceOnUse">
<stop stop-color="#FFDD2C"/>
<stop offset="1" stop-color="#F49D1B" stop-opacity="0"/>
</linearGradient>
<linearGradient id="paint2_linear_829_3137" x1="12.6211" y1="6.83704" x2="12.6211" y2="8.16129" gradientUnits="userSpaceOnUse">
<stop stop-color="#FFDD2C"/>
<stop offset="1" stop-color="#F49D1B" stop-opacity="0"/>
</linearGradient>
<linearGradient id="paint3_linear_829_3137" x1="12.6211" y1="6.6523" x2="12.6211" y2="8.34479" gradientUnits="userSpaceOnUse">
<stop stop-color="white"/>
<stop offset="0.2125" stop-color="#FFEB3B" stop-opacity="0"/>
<stop offset="0.821875" stop-color="#FFEB3B" stop-opacity="0"/>
</linearGradient>
<linearGradient id="paint4_linear_829_3137" x1="12.6211" y1="6.65326" x2="12.6211" y2="8.34574" gradientUnits="userSpaceOnUse">
<stop stop-color="white"/>
<stop offset="0.2125" stop-color="#FFEB3B" stop-opacity="0"/>
<stop offset="0.821875" stop-color="#FFEB3B" stop-opacity="0"/>
</linearGradient>
<linearGradient id="paint5_linear_829_3137" x1="12.6237" y1="6.68413" x2="12.6237" y2="8.31196" gradientUnits="userSpaceOnUse">
<stop stop-color="#DE7800"/>
<stop offset="0.821875" stop-color="#FFA800" stop-opacity="0"/>
</linearGradient>
<linearGradient id="paint6_linear_829_3137" x1="12.3366" y1="7.2832" x2="12.6062" y2="7.716" gradientUnits="userSpaceOnUse">
<stop stop-color="#FDF1CF"/>
<stop offset="1" stop-color="#FFD14A"/>
</linearGradient>
<linearGradient id="paint7_linear_829_3137" x1="12.3366" y1="7.2832" x2="12.6062" y2="7.716" gradientUnits="userSpaceOnUse">
<stop stop-color="#FDF1CF"/>
<stop offset="1" stop-color="#FFD14A"/>
</linearGradient>
<linearGradient id="paint8_linear_829_3137" x1="12.3366" y1="7.2832" x2="12.6062" y2="7.716" gradientUnits="userSpaceOnUse">
<stop stop-color="#FDF1CF"/>
<stop offset="1" stop-color="#FFD14A"/>
</linearGradient>
<linearGradient id="paint9_linear_829_3137" x1="5.94922" y1="4.13738" x2="5.94922" y2="8.84641" gradientUnits="userSpaceOnUse">
<stop stop-color="#FFDD2C"/>
<stop offset="1" stop-color="#F49D1B" stop-opacity="0"/>
</linearGradient>
<linearGradient id="paint10_linear_829_3137" x1="5.94922" y1="4.03917" x2="5.94922" y2="8.94654" gradientUnits="userSpaceOnUse">
<stop stop-color="#FFDD2C"/>
<stop offset="1" stop-color="#F49D1B" stop-opacity="0"/>
</linearGradient>
<linearGradient id="paint11_linear_829_3137" x1="5.94922" y1="3.3568" x2="5.94922" y2="9.62877" gradientUnits="userSpaceOnUse">
<stop stop-color="white"/>
<stop offset="0.2125" stop-color="#FFEB3B" stop-opacity="0"/>
<stop offset="0.821875" stop-color="#FFEB3B" stop-opacity="0"/>
</linearGradient>
<linearGradient id="paint12_linear_829_3137" x1="5.94922" y1="3.35561" x2="5.94922" y2="9.62757" gradientUnits="userSpaceOnUse">
<stop stop-color="white"/>
<stop offset="0.2125" stop-color="#FFEB3B" stop-opacity="0"/>
<stop offset="0.821875" stop-color="#FFEB3B" stop-opacity="0"/>
</linearGradient>
<linearGradient id="paint13_linear_829_3137" x1="5.94914" y1="3.47599" x2="5.94914" y2="9.50838" gradientUnits="userSpaceOnUse">
<stop stop-color="#DE7800"/>
<stop offset="0.821875" stop-color="#FFA800" stop-opacity="0"/>
</linearGradient>
<linearGradient id="paint14_linear_829_3137" x1="4.88535" y1="5.68945" x2="5.88441" y2="7.2933" gradientUnits="userSpaceOnUse">
<stop stop-color="#FDF1CF"/>
<stop offset="1" stop-color="#FFD14A"/>
</linearGradient>
<linearGradient id="paint15_linear_829_3137" x1="4.88535" y1="5.68945" x2="5.88441" y2="7.2933" gradientUnits="userSpaceOnUse">
<stop stop-color="#FDF1CF"/>
<stop offset="1" stop-color="#FFD14A"/>
</linearGradient>
<linearGradient id="paint16_linear_829_3137" x1="4.88535" y1="5.68945" x2="5.88441" y2="7.2933" gradientUnits="userSpaceOnUse">
<stop stop-color="#FDF1CF"/>
<stop offset="1" stop-color="#FFD14A"/>
</linearGradient>
</defs>
</svg>
