<svg width="24" height="31" viewBox="0 0 24 31" fill="none" xmlns="http://www.w3.org/2000/svg">
<path fill-rule="evenodd" clip-rule="evenodd" d="M8 0.962528C8.75678 0.96163 9.50505 1.1222 10.1948 1.43352C10.8846 1.74485 11.5 2.19975 12 2.76786C12.5 2.19975 13.1154 1.74485 13.8052 1.43352C14.495 1.1222 15.2432 0.96163 16 0.962528H16.6667C17.1971 0.962528 17.7058 1.17324 18.0809 1.54831C18.456 1.92339 18.6667 2.4321 18.6667 2.96253V3.6292C18.6667 4.6012 18.4067 5.51186 17.9533 6.29586H21.3333C22.0406 6.29586 22.7189 6.57681 23.219 7.07691C23.719 7.57701 24 8.25529 24 8.96253V12.9625C24 13.4306 23.8768 13.8905 23.6427 14.2958C23.4087 14.7012 23.072 15.0378 22.6667 15.2719V22.2959C22.6667 23.3567 22.2452 24.3741 21.4951 25.1243C20.7449 25.8744 19.7275 26.2959 18.6667 26.2959H5.33333C4.27247 26.2959 3.25505 25.8744 2.50491 25.1243C1.75476 24.3741 1.33333 23.3567 1.33333 22.2959V15.2719C0.927959 15.0378 0.591331 14.7012 0.357283 14.2958C0.123234 13.8905 1.18913e-05 13.4306 0 12.9625V8.96253C0 8.25529 0.280951 7.57701 0.781048 7.07691C1.28115 6.57681 1.95942 6.29586 2.66667 6.29586H6.04667C5.57793 5.48541 5.33184 4.56543 5.33333 3.6292V2.96253C5.33333 2.4321 5.54405 1.92339 5.91912 1.54831C6.29419 1.17324 6.8029 0.962528 7.33333 0.962528H8ZM20 15.6292H13.3333V23.6292H18.6667L18.8227 23.6199C19.1203 23.5848 19.3974 23.4504 19.6093 23.2385C19.8212 23.0266 19.9556 22.7495 19.9907 22.4519L20 22.2959V15.6292ZM10.6667 15.6292H4V22.2959C4.00004 22.6224 4.11994 22.9376 4.33695 23.1817C4.55397 23.4257 4.853 23.5817 5.17733 23.6199L5.33333 23.6292H10.6667V15.6292ZM21.3333 8.96253H13.3333V12.9625H21.3333V8.96253ZM10.6667 8.96253H2.66667V12.9625H10.6667V8.96253ZM8 3.6292C8 4.33644 8.28095 5.01472 8.78105 5.51481C9.28115 6.01491 9.95942 6.29586 10.6667 6.29586C10.6667 5.58862 10.3857 4.91034 9.88562 4.41024C9.38552 3.91015 8.70724 3.6292 8 3.6292ZM16 3.6292C15.2928 3.6292 14.6145 3.91015 14.1144 4.41024C13.6143 4.91034 13.3333 5.58862 13.3333 6.29586C14.0406 6.29586 14.7189 6.01491 15.219 5.51481C15.719 5.01472 16 4.33644 16 3.6292Z" fill="#93D500"/>
</svg>
