<svg width="55" height="55" viewBox="0 0 55 55" fill="none" xmlns="http://www.w3.org/2000/svg">
<path d="M27.1013 54.9985C21.4224 54.9985 11.9179 54.9985 5.94238 49.0892C0 43.2116 0 33.6258 0 27.8972C0 22.1686 -1.72296e-06 12.5813 5.94539 6.70366C11.9194 0.795901 21.4224 0.795898 27.1013 0.795898C32.7802 0.795898 42.4172 0.795898 48.2948 6.73828C54.2041 12.7138 54.2041 22.2183 54.2041 27.8987C54.2026 33.5806 54.1996 43.0881 48.2948 49.0576C42.4157 55 32.8284 55 27.1013 55V54.9985Z" fill="white"/>
<path d="M37.4987 19.9005C37.7108 19.9005 37.9142 19.9848 38.0642 20.1347C38.2141 20.2847 38.2984 20.4881 38.2984 20.7002V35.0956C38.2984 35.3077 38.2141 35.5111 38.0642 35.6611C37.9142 35.8111 37.7108 35.8953 37.4987 35.8953H16.7054C16.4933 35.8953 16.2899 35.8111 16.1399 35.6611C15.9899 35.5111 15.9056 35.3077 15.9056 35.0956V20.7002C15.9056 20.4881 15.9899 20.2847 16.1399 20.1347C16.2899 19.9848 16.4933 19.9005 16.7054 19.9005H37.4987ZM16.7054 18.301C16.0691 18.301 15.4588 18.5538 15.0089 19.0037C14.5589 19.4537 14.3062 20.0639 14.3062 20.7002V35.0956C14.3062 35.7319 14.5589 36.3422 15.0089 36.7921C15.4588 37.242 16.0691 37.4948 16.7054 37.4948H37.4987C38.135 37.4948 38.7452 37.242 39.1952 36.7921C39.6451 36.3422 39.8979 35.7319 39.8979 35.0956V20.7002C39.8979 20.0639 39.6451 19.4537 39.1952 19.0037C38.7452 18.5538 38.135 18.301 37.4987 18.301H16.7054Z" fill="#31404F"/>
<path d="M22.3036 27.8979C22.3036 27.6858 22.3878 27.4824 22.5378 27.3324C22.6878 27.1825 22.8912 27.0982 23.1033 27.0982H34.2997C34.5118 27.0982 34.7152 27.1825 34.8652 27.3324C35.0152 27.4824 35.0994 27.6858 35.0994 27.8979C35.0994 28.11 35.0152 28.3135 34.8652 28.4634C34.7152 28.6134 34.5118 28.6977 34.2997 28.6977H23.1033C22.8912 28.6977 22.6878 28.6134 22.5378 28.4634C22.3878 28.3135 22.3036 28.11 22.3036 27.8979ZM22.3036 23.8992C22.3036 23.6871 22.3878 23.4837 22.5378 23.3337C22.6878 23.1837 22.8912 23.0995 23.1033 23.0995H34.2997C34.5118 23.0995 34.7152 23.1837 34.8652 23.3337C35.0152 23.4837 35.0994 23.6871 35.0994 23.8992C35.0994 24.1113 35.0152 24.3147 34.8652 24.4647C34.7152 24.6147 34.5118 24.699 34.2997 24.699H23.1033C22.8912 24.699 22.6878 24.6147 22.5378 24.4647C22.3878 24.3147 22.3036 24.1113 22.3036 23.8992ZM22.3036 31.8966C22.3036 31.6845 22.3878 31.4811 22.5378 31.3311C22.6878 31.1812 22.8912 31.0969 23.1033 31.0969H34.2997C34.5118 31.0969 34.7152 31.1812 34.8652 31.3311C35.0152 31.4811 35.0994 31.6845 35.0994 31.8966C35.0994 32.1087 35.0152 32.3122 34.8652 32.4621C34.7152 32.6121 34.5118 32.6964 34.2997 32.6964H23.1033C22.8912 32.6964 22.6878 32.6121 22.5378 32.4621C22.3878 32.3122 22.3036 32.1087 22.3036 31.8966ZM20.7041 23.8992C20.7041 24.1113 20.6198 24.3147 20.4699 24.4647C20.3199 24.6147 20.1165 24.699 19.9044 24.699C19.6923 24.699 19.4888 24.6147 19.3389 24.4647C19.1889 24.3147 19.1046 24.1113 19.1046 23.8992C19.1046 23.6871 19.1889 23.4837 19.3389 23.3337C19.4888 23.1837 19.6923 23.0995 19.9044 23.0995C20.1165 23.0995 20.3199 23.1837 20.4699 23.3337C20.6198 23.4837 20.7041 23.6871 20.7041 23.8992ZM20.7041 27.8979C20.7041 28.11 20.6198 28.3135 20.4699 28.4634C20.3199 28.6134 20.1165 28.6977 19.9044 28.6977C19.6923 28.6977 19.4888 28.6134 19.3389 28.4634C19.1889 28.3135 19.1046 28.11 19.1046 27.8979C19.1046 27.6858 19.1889 27.4824 19.3389 27.3324C19.4888 27.1825 19.6923 27.0982 19.9044 27.0982C20.1165 27.0982 20.3199 27.1825 20.4699 27.3324C20.6198 27.4824 20.7041 27.6858 20.7041 27.8979ZM20.7041 31.8966C20.7041 32.1087 20.6198 32.3122 20.4699 32.4621C20.3199 32.6121 20.1165 32.6964 19.9044 32.6964C19.6923 32.6964 19.4888 32.6121 19.3389 32.4621C19.1889 32.3122 19.1046 32.1087 19.1046 31.8966C19.1046 31.6845 19.1889 31.4811 19.3389 31.3311C19.4888 31.1812 19.6923 31.0969 19.9044 31.0969C20.1165 31.0969 20.3199 31.1812 20.4699 31.3311C20.6198 31.4811 20.7041 31.6845 20.7041 31.8966Z" fill="#31404F"/>
</svg>
