<svg width="60" height="61" viewBox="0 0 60 61" fill="none" xmlns="http://www.w3.org/2000/svg">
<path d="M29.9992 60.7952C23.713 60.7952 13.1922 60.7952 6.57779 54.2541C0 47.748 0 37.1372 0 30.796C0 24.4549 -1.90719e-06 13.8425 6.58112 7.33633C13.1939 0.796878 23.713 0.796875 29.9992 0.796875C36.2853 0.796875 46.9528 0.796875 53.4589 7.37466C60 13.9891 60 24.5099 60 30.7977C59.9983 37.0872 59.995 47.6113 53.4589 54.2191C46.9511 60.7969 36.3386 60.7969 29.9992 60.7969V60.7952Z" fill="#93D500"/>
<path d="M41.5083 21.9443C41.7431 21.9443 41.9683 22.0376 42.1343 22.2036C42.3003 22.3696 42.3936 22.5948 42.3936 22.8296V38.7642C42.3936 38.999 42.3003 39.2241 42.1343 39.3902C41.9683 39.5562 41.7431 39.6494 41.5083 39.6494H18.4917C18.2569 39.6494 18.0318 39.5562 17.8657 39.3902C17.6997 39.2241 17.6064 38.999 17.6064 38.7642V22.8296C17.6064 22.5948 17.6997 22.3696 17.8657 22.2036C18.0318 22.0376 18.2569 21.9443 18.4917 21.9443H41.5083ZM18.4917 20.1738C17.7874 20.1738 17.1118 20.4536 16.6138 20.9517C16.1157 21.4497 15.8359 22.1252 15.8359 22.8296V38.7642C15.8359 39.4685 16.1157 40.144 16.6138 40.6421C17.1118 41.1402 17.7874 41.42 18.4917 41.42H41.5083C42.2127 41.42 42.8882 41.1402 43.3862 40.6421C43.8843 40.144 44.1641 39.4685 44.1641 38.7642V22.8296C44.1641 22.1252 43.8843 21.4497 43.3862 20.9517C42.8882 20.4536 42.2127 20.1738 41.5083 20.1738H18.4917Z" fill="#31404F"/>
<path d="M24.6895 30.7979C24.6895 30.5631 24.7827 30.3379 24.9487 30.1719C25.1148 30.0059 25.3399 29.9126 25.5747 29.9126H37.9683C38.2031 29.9126 38.4282 30.0059 38.5943 30.1719C38.7603 30.3379 38.8535 30.5631 38.8535 30.7979C38.8535 31.0326 38.7603 31.2578 38.5943 31.4238C38.4282 31.5898 38.2031 31.6831 37.9683 31.6831H25.5747C25.3399 31.6831 25.1148 31.5898 24.9487 31.4238C24.7827 31.2578 24.6895 31.0326 24.6895 30.7979ZM24.6895 26.3716C24.6895 26.1368 24.7827 25.9116 24.9487 25.7456C25.1148 25.5796 25.3399 25.4863 25.5747 25.4863H37.9683C38.2031 25.4863 38.4282 25.5796 38.5943 25.7456C38.7603 25.9116 38.8535 26.1368 38.8535 26.3716C38.8535 26.6064 38.7603 26.8315 38.5943 26.9976C38.4282 27.1636 38.2031 27.2568 37.9683 27.2568H25.5747C25.3399 27.2568 25.1148 27.1636 24.9487 26.9976C24.7827 26.8315 24.6895 26.6064 24.6895 26.3716ZM24.6895 35.2241C24.6895 34.9894 24.7827 34.7642 24.9487 34.5982C25.1148 34.4321 25.3399 34.3389 25.5747 34.3389H37.9683C38.2031 34.3389 38.4282 34.4321 38.5943 34.5982C38.7603 34.7642 38.8535 34.9894 38.8535 35.2241C38.8535 35.4589 38.7603 35.6841 38.5943 35.8501C38.4282 36.0161 38.2031 36.1094 37.9683 36.1094H25.5747C25.3399 36.1094 25.1148 36.0161 24.9487 35.8501C24.7827 35.6841 24.6895 35.4589 24.6895 35.2241ZM22.9189 26.3716C22.9189 26.6064 22.8257 26.8315 22.6597 26.9976C22.4936 27.1636 22.2685 27.2568 22.0337 27.2568C21.7989 27.2568 21.5737 27.1636 21.4077 26.9976C21.2417 26.8315 21.1484 26.6064 21.1484 26.3716C21.1484 26.1368 21.2417 25.9116 21.4077 25.7456C21.5737 25.5796 21.7989 25.4863 22.0337 25.4863C22.2685 25.4863 22.4936 25.5796 22.6597 25.7456C22.8257 25.9116 22.9189 26.1368 22.9189 26.3716V26.3716ZM22.9189 30.7979C22.9189 31.0326 22.8257 31.2578 22.6597 31.4238C22.4936 31.5898 22.2685 31.6831 22.0337 31.6831C21.7989 31.6831 21.5737 31.5898 21.4077 31.4238C21.2417 31.2578 21.1484 31.0326 21.1484 30.7979C21.1484 30.5631 21.2417 30.3379 21.4077 30.1719C21.5737 30.0059 21.7989 29.9126 22.0337 29.9126C22.2685 29.9126 22.4936 30.0059 22.6597 30.1719C22.8257 30.3379 22.9189 30.5631 22.9189 30.7979V30.7979ZM22.9189 35.2241C22.9189 35.4589 22.8257 35.6841 22.6597 35.8501C22.4936 36.0161 22.2685 36.1094 22.0337 36.1094C21.7989 36.1094 21.5737 36.0161 21.4077 35.8501C21.2417 35.6841 21.1484 35.4589 21.1484 35.2241C21.1484 34.9894 21.2417 34.7642 21.4077 34.5982C21.5737 34.4321 21.7989 34.3389 22.0337 34.3389C22.2685 34.3389 22.4936 34.4321 22.6597 34.5982C22.8257 34.7642 22.9189 34.9894 22.9189 35.2241V35.2241Z" fill="#31404F"/>
</svg>
