<svg width="32" height="33" viewBox="0 0 32 33" fill="none" xmlns="http://www.w3.org/2000/svg">
<path fill-rule="evenodd" clip-rule="evenodd" d="M14.6853 7.19591C14.9147 6.89591 15.3307 6.46257 16 6.46257C16.6693 6.46257 17.0853 6.89591 17.3147 7.19591C17.5347 7.48124 17.7547 7.87724 17.9813 8.28391L18.1427 8.57457L18.2187 8.7079L18.3507 8.73857L18.668 8.81057C19.104 8.90924 19.5387 9.00657 19.872 9.13857C20.24 9.28391 20.7387 9.56524 20.932 10.1852C21.1213 10.7919 20.8827 11.3066 20.6747 11.6386C20.4813 11.9452 20.188 12.2866 19.888 12.6372L19.6747 12.8879L19.5653 13.0172C19.568 13.0652 19.5747 13.1212 19.5813 13.1972L19.6133 13.5306C19.6587 13.9986 19.7027 14.4519 19.6867 14.8146C19.6707 15.1959 19.58 15.7719 19.0627 16.1626C18.5293 16.5679 17.9427 16.4799 17.5693 16.3719C17.2253 16.2746 16.8187 16.0866 16.4093 15.8986L16.1133 15.7612L16 15.7092L15.8867 15.7626L15.5893 15.8986C15.1813 16.0866 14.7747 16.2746 14.4307 16.3719C14.0573 16.4786 13.4707 16.5679 12.9373 16.1626C12.4213 15.7719 12.3293 15.1959 12.3133 14.8159C12.2973 14.4519 12.34 13.9986 12.3867 13.5292L12.4187 13.1959L12.436 13.0172C12.3994 12.9739 12.3625 12.9308 12.3253 12.8879L12.112 12.6372C11.812 12.2866 11.5187 11.9439 11.3253 11.6372C11.1173 11.3066 10.8787 10.7919 11.068 10.1839C11.26 9.56657 11.76 9.28391 12.128 9.13857C12.4613 9.00657 12.896 8.90924 13.332 8.81057L13.6493 8.73857L13.7827 8.7079L13.8573 8.57457L14.0187 8.28391C14.2453 7.87724 14.4653 7.48124 14.6853 7.19591ZM16 8.84124C15.9227 8.9759 15.836 9.13057 15.7347 9.31324L15.604 9.54791L15.5733 9.60124C15.4693 9.79324 15.296 10.1106 15.0067 10.3306C14.712 10.5546 14.356 10.6319 14.1493 10.6772L14.0907 10.6892L13.8373 10.7466C13.6027 10.7999 13.412 10.8426 13.2507 10.8839C13.356 11.0132 13.4933 11.1759 13.672 11.3852L13.8453 11.5879L13.8853 11.6332C14.0293 11.7999 14.2613 12.0666 14.3693 12.4132C14.476 12.7546 14.4387 13.1066 14.416 13.3279L14.4093 13.3906L14.3827 13.6612C14.3621 13.8655 14.3435 14.07 14.3267 14.2746C14.4667 14.2132 14.624 14.1412 14.812 14.0546L15.0507 13.9452L15.104 13.9186C15.296 13.8292 15.628 13.6719 16 13.6719C16.372 13.6719 16.704 13.8292 16.896 13.9199L16.9493 13.9452L17.188 14.0546C17.3747 14.1412 17.5347 14.2146 17.6733 14.2746C17.6565 14.07 17.6379 13.8655 17.6173 13.6612L17.5907 13.3906L17.584 13.3279C17.5613 13.1052 17.524 12.7546 17.6307 12.4132C17.7373 12.0666 17.9707 11.7999 18.1147 11.6332L18.1547 11.5879L18.328 11.3852C18.5067 11.1759 18.644 11.0132 18.7493 10.8839C18.588 10.8439 18.3973 10.7999 18.1627 10.7466L17.8507 10.6759C17.644 10.6319 17.288 10.5546 16.9933 10.3292C16.704 10.1106 16.5307 9.79324 16.4267 9.60257L16.396 9.54791L16.2653 9.31324C16.164 9.13057 16.0787 8.9759 16 8.84124Z" fill="#93D500"/>
<path fill-rule="evenodd" clip-rule="evenodd" d="M9.99734 2.93857C11.9815 2.61331 13.9894 2.45409 16 2.46257C18.4373 2.46257 20.452 2.67724 22.0027 2.93857L22.1827 2.96924C23.5293 3.19457 24.6493 3.38257 25.524 4.4599C26.0853 5.1519 26.2667 5.8999 26.308 6.73324L26.964 6.9519C27.5813 7.15724 28.124 7.33857 28.552 7.53857C29.016 7.75457 29.4413 8.0319 29.7667 8.4839C30.092 8.93457 30.2213 9.42657 30.28 9.93457C30.3333 10.4052 30.3333 10.9746 30.3333 11.6279V11.8199C30.3333 12.3559 30.3333 12.8292 30.2933 13.2252C30.2507 13.6532 30.156 14.0706 29.92 14.4732C29.6813 14.8772 29.3627 15.1626 29.0093 15.4079C28.6827 15.6346 28.2693 15.8652 27.8 16.1252L24.28 18.0812C23.56 19.4959 22.5733 20.7572 21.2133 21.6679C20.0467 22.4506 18.6507 22.9466 17 23.0879V25.7959H18.9067C19.4461 25.7959 19.9689 25.9828 20.386 26.3249C20.8032 26.6669 21.0889 27.1429 21.1947 27.6719L21.4867 29.1292H24C24.2652 29.1292 24.5196 29.2346 24.7071 29.4221C24.8946 29.6097 25 29.864 25 30.1292C25 30.3945 24.8946 30.6488 24.7071 30.8363C24.5196 31.0239 24.2652 31.1292 24 31.1292H8C7.73479 31.1292 7.48043 31.0239 7.2929 30.8363C7.10536 30.6488 7 30.3945 7 30.1292C7 29.864 7.10536 29.6097 7.2929 29.4221C7.48043 29.2346 7.73479 29.1292 8 29.1292H10.5133L10.8053 27.6719C10.9111 27.1429 11.1968 26.6669 11.614 26.3249C12.0311 25.9828 12.5539 25.7959 13.0933 25.7959H15V23.0879C13.3493 22.9466 11.9533 22.4506 10.7867 21.6692C9.42801 20.7572 8.44 19.4959 7.72 18.0812L4.20001 16.1252C3.7858 15.9053 3.38224 15.666 2.99067 15.4079C2.62191 15.1683 2.31125 14.8494 2.08134 14.4746C1.86478 14.0913 1.73676 13.6644 1.70667 13.2252C1.66667 12.8292 1.66667 12.3559 1.66667 11.8199V11.6266C1.66667 10.9759 1.66667 10.4052 1.72001 9.93457C1.77867 9.42657 1.90667 8.93457 2.23334 8.4839C2.55867 8.0319 2.98401 7.75457 3.44667 7.53724C3.87734 7.33724 4.41867 7.15724 5.036 6.9519L5.692 6.73324C5.73334 5.89857 5.91467 5.1519 6.476 4.4599C7.352 3.38124 8.47067 3.19324 9.81867 2.96924L9.99734 2.93857ZM12.5533 29.1292H19.4467L19.2333 28.0639C19.2182 27.9884 19.1774 27.9204 19.1179 27.8715C19.0583 27.8227 18.9837 27.7959 18.9067 27.7959H13.0933C13.0163 27.7959 12.9417 27.8227 12.8821 27.8715C12.8226 27.9204 12.7818 27.9884 12.7667 28.0639L12.5533 29.1292ZM5.736 8.82657L5.71734 8.83324C5.03734 9.0599 4.60534 9.20657 4.29067 9.3519C4.00134 9.48524 3.908 9.5799 3.856 9.65324C3.80267 9.72524 3.744 9.8439 3.708 10.1612C3.668 10.5052 3.66667 10.9612 3.66667 11.6786V11.7759C3.66667 12.3692 3.66667 12.7412 3.69601 13.0266C3.72267 13.2879 3.76534 13.3932 3.80534 13.4599C3.84401 13.5266 3.91467 13.6146 4.13067 13.7652C4.36534 13.9279 4.69067 14.1092 5.21067 14.3986L6.63067 15.1879C6.06 13.0946 5.83067 10.8546 5.73734 8.8279L5.736 8.82657ZM25.3693 15.1866C25.94 13.0932 26.1693 10.8532 26.264 8.82657L26.2827 8.83324C26.9627 9.0599 27.3947 9.20657 27.7093 9.3519C27.9987 9.48524 28.092 9.5799 28.144 9.65324C28.1973 9.72524 28.256 9.8439 28.292 10.1612C28.332 10.5052 28.3333 10.9612 28.3333 11.6786V11.7759C28.3333 12.3692 28.3333 12.7412 28.304 13.0266C28.2773 13.2879 28.2347 13.3932 28.1947 13.4599C28.156 13.5266 28.0853 13.6146 27.8693 13.7652C27.6333 13.9279 27.3093 14.1092 26.7893 14.3986L25.3693 15.1866ZM16 4.46257C13.68 4.46257 11.7773 4.66657 10.3307 4.91057C8.72134 5.18257 8.384 5.2839 8.02934 5.72124C7.68 6.15057 7.64667 6.55857 7.71734 8.36524C7.83734 11.3759 8.23467 14.6266 9.464 17.0986C10.072 18.3172 10.8667 19.3146 11.9013 20.0079C12.928 20.6972 14.2547 21.1292 16 21.1292C17.7467 21.1292 19.072 20.6972 20.1 20.0079C21.1347 19.3146 21.928 18.3172 22.5347 17.0972C23.7653 14.6266 24.1627 11.3772 24.2813 8.3639C24.3547 6.55857 24.3213 6.15057 23.972 5.72124C23.6173 5.2839 23.2787 5.18257 21.6693 4.91057C19.7953 4.60396 17.8989 4.45411 16 4.46257Z" fill="#93D500"/>
</svg>
