<svg width="553" height="637" viewBox="0 0 553 637" fill="none" xmlns="http://www.w3.org/2000/svg">
<path opacity="0.6" d="M143.868 774.773C180.999 774.773 228.723 773.115 257.079 744.972C285.436 716.83 286.827 668.731 286.88 631.761V567.183C286.88 532.674 288.913 530.641 323.422 530.641H452.524C487.087 530.641 489.12 532.674 489.12 567.183V631.761C489.12 668.892 490.779 716.616 518.867 744.972C546.956 773.329 595.162 774.72 632.132 774.773C669.103 774.827 716.934 773.115 745.344 745.026C773.754 716.937 775.091 668.731 775.145 631.761C775.198 594.791 773.486 546.906 745.344 518.496C717.201 490.086 669.103 488.802 632.132 488.748H567.555C533.046 488.748 531.012 486.715 531.012 452.206V387.628V323.051C531.012 288.542 533.046 286.509 567.555 286.509H632.132C669.584 286.509 716.987 284.85 745.397 256.761C773.807 228.672 775.091 180.466 775.145 143.496C775.198 106.526 773.486 58.6411 745.397 30.2313C717.309 1.8214 669.103 0.430298 632.132 0.430298C595.162 0.430298 547.277 2.08886 518.867 30.1777C490.457 58.2666 489.173 106.472 489.12 143.443V208.02C489.12 242.529 487.087 244.563 452.578 244.563H323.422C288.913 244.563 286.88 242.529 286.88 208.02V143.496C286.88 106.312 285.222 58.6411 257.133 30.2313C229.044 1.8214 180.838 0.430298 143.868 0.430298C106.897 0.430298 59.0126 2.08886 30.6027 30.1777C2.19282 58.2666 0.90877 106.472 0.855268 143.443C0.801765 180.413 2.51383 228.298 30.6027 256.654C58.6916 285.011 106.897 286.402 143.868 286.455H208.445C242.954 286.455 244.988 288.488 244.988 322.997V387.575V452.099C244.988 486.662 242.954 488.695 208.445 488.695H143.868C106.416 488.695 59.0126 490.353 30.6027 518.442C2.19282 546.531 0.90877 594.737 0.855268 631.707C0.801765 668.677 2.51383 716.562 30.6027 744.919C58.6916 773.275 106.897 774.72 143.868 774.773Z" fill="#003594"/>
</svg>
