<svg width="775" height="586" viewBox="0 0 775 586" fill="none" xmlns="http://www.w3.org/2000/svg">
<path opacity="0.6" d="M143.51 585.14C180.641 585.14 228.365 583.481 256.721 555.339C285.078 527.196 286.469 479.098 286.522 442.127V377.55C286.522 343.041 288.555 341.008 323.064 341.008H452.166C486.729 341.008 488.762 343.041 488.762 377.55V442.127C488.762 479.258 490.42 526.982 518.509 555.339C546.598 583.695 594.804 585.086 631.774 585.14C668.745 585.193 716.576 583.481 744.986 555.392C773.396 527.304 774.733 479.098 774.787 442.127C774.84 405.157 773.128 357.272 744.986 328.862C716.843 300.452 668.745 299.168 631.774 299.115H567.197C532.687 299.115 530.654 297.082 530.654 262.573V197.995V133.417C530.654 98.9082 532.687 96.8752 567.197 96.8752H631.774C669.226 96.8752 716.629 95.2166 745.039 67.1278C773.449 39.0389 774.733 -9.16698 774.787 -46.1373C774.84 -83.1076 773.128 -130.992 745.039 -159.402C716.95 -187.812 668.745 -189.203 631.774 -189.203C594.804 -189.203 546.919 -187.545 518.509 -159.456C490.099 -131.367 488.815 -83.1609 488.762 -46.1907V18.3868C488.762 52.896 486.729 54.9292 452.22 54.9292H323.064C288.555 54.9292 286.522 52.896 286.522 18.3868V-46.1373C286.522 -83.3216 284.864 -130.992 256.775 -159.402C228.686 -187.812 180.48 -189.203 143.51 -189.203C106.539 -189.203 58.6545 -187.545 30.2447 -159.456C1.83479 -131.367 0.550738 -83.1609 0.497235 -46.1907C0.443733 -9.22038 2.1558 38.6645 30.2447 67.0208C58.3335 95.3772 106.539 96.7681 143.51 96.8216H208.087C242.596 96.8216 244.63 98.8548 244.63 133.364V197.941V262.466C244.63 297.028 242.596 299.062 208.087 299.062H143.51C106.058 299.062 58.6545 300.72 30.2447 328.809C1.83479 356.898 0.550738 405.104 0.497235 442.074C0.443733 479.044 2.1558 526.929 30.2447 555.285C58.3335 583.642 106.539 585.086 143.51 585.14Z" fill="#003594"/>
</svg>
