<svg width="170" height="30" viewBox="0 0 170 30" fill="none" xmlns="http://www.w3.org/2000/svg">
<path d="M22.6814 9.34032C22.6814 11.0636 21.7279 12.0171 20.0047 12.0171C18.2814 12.0171 17.3279 11.0636 17.3279 9.34032C17.3279 7.61706 18.2814 6.66357 20.0047 6.66357C21.7256 6.66357 22.6814 7.61706 22.6814 9.34032ZM9.0907 17.5775C6.65116 17.5775 6.41395 17.8171 6.41395 20.2543C6.41395 22.6938 6.65349 22.931 9.0907 22.931C11.5302 22.931 11.7674 22.6915 11.7674 20.2543C11.7698 17.8171 11.5302 17.5775 9.0907 17.5775ZM29.093 14.7985C29.0907 17.8473 29.0907 22.9519 25.9209 26.1543C22.7651 29.3426 17.6209 29.3426 14.5465 29.3426C11.4977 29.3426 6.39767 29.3426 3.1907 26.1706C2.21785e-07 23.0194 0 17.8729 0 14.7985C0 11.724 2.21785e-07 6.57753 3.1907 3.42404C6.39767 0.251949 11.4977 0.251953 14.5465 0.251953C17.6209 0.251953 22.7674 0.251951 25.9209 3.44032C29.093 6.64962 29.093 11.7496 29.093 14.7985ZM14.5465 27.0171H14.5395V19.1101C14.5395 15.045 14.3 14.8054 10.2349 14.8054H2.33023C2.33023 17.931 2.4 22.1147 4.82791 24.5171C7.26512 26.9287 11.393 27.0147 14.5395 27.0147H14.5465V27.0171ZM26.7651 14.7985C26.7651 11.6496 26.6791 7.51939 24.2674 5.07985C21.8651 2.64962 17.6767 2.58218 14.5488 2.58218C11.4 2.58218 7.26977 2.66823 4.83023 5.07985C3.56744 6.32869 2.94651 8.05892 2.63721 9.87055C6.9907 9.87753 12.6767 10.045 15.9721 13.3775C19.2814 16.7217 19.4721 22.3357 19.4767 26.7124C21.2884 26.4031 23.0209 25.7798 24.2674 24.5194C26.6791 22.0775 26.7651 17.9473 26.7651 14.7985ZM81.1349 13.7752C81.1349 18.4775 80.3791 20.3054 78.3698 20.3054H78.1L79.4465 24.5682C84.0907 24.231 85.4744 21.2659 85.4744 13.8031V8.92637H91.3256V24.5147H95.9837V5.0659H81.1395V13.7752H81.1349ZM67.5302 5.0659C64.8767 5.0659 63.7302 5.98916 62.9698 8.40544L57.907 24.5124H62.186L63.4954 20.3915H71.3256L72.6349 24.5124H77.1767L72.0884 8.39846C71.3279 5.98684 70.1837 5.0659 67.5302 5.0659ZM64.6907 16.5892L66.7605 9.93567C66.8465 9.66358 67.0977 9.47753 67.3861 9.47753C67.6721 9.47753 67.9233 9.66125 68.0093 9.93102L70.1349 16.5892H64.6907ZM98.1628 5.0659H115.395V8.92637H109.109V24.5147H104.451V8.92637H98.1628V5.0659ZM170 5.0659V8.92637H163.714V24.5147H159.056V8.92637H152.767V5.0659H170ZM141.184 19.5473C141.184 20.6031 141.263 20.6822 142.321 20.6822H150.993V24.5147H142.214C138.642 24.5147 136.526 22.4031 136.526 18.8426V5.0659H150.847V8.89846H141.184V12.7589H149.537V16.445H141.184V19.5473ZM50.6605 12.4031H45.393V8.91939H55.3767V5.05892H40.7349V24.5078L50.6558 24.5124C54.4395 24.5147 56.7279 22.231 56.7279 18.4589C56.7302 14.6845 54.4419 12.4031 50.6605 12.4031ZM50.9512 20.7985H45.393V16.124H50.9512C52.0093 16.124 52.0884 16.2031 52.0884 17.2589V19.6636C52.0884 20.7194 52.0093 20.7985 50.9512 20.7985ZM127.502 12.4589H122.235V8.9752H132.219V5.11474H117.577V24.5636L127.498 24.5682C131.281 24.5706 133.57 22.2868 133.57 18.5147C133.572 14.7403 131.284 12.4589 127.502 12.4589ZM127.793 20.852H122.235V16.1775H127.793C128.851 16.1775 128.93 16.2566 128.93 17.3124V19.7171C128.93 20.7729 128.851 20.852 127.793 20.852Z" fill="white"/>
</svg>
