<svg width="234" height="348" viewBox="0 0 234 348" fill="none" xmlns="http://www.w3.org/2000/svg">
<path opacity="0.6" d="M64.6833 347.281C81.3098 347.281 102.68 346.538 115.377 333.937C128.075 321.335 128.698 299.797 128.722 283.243V254.326C128.722 238.874 129.632 237.963 145.085 237.963H202.894C218.37 237.963 219.281 238.874 219.281 254.326V283.243C219.281 299.869 220.023 321.239 232.601 333.937C245.179 346.634 266.764 347.257 283.319 347.281C299.874 347.305 321.292 346.538 334.013 333.961C346.734 321.383 347.333 299.797 347.357 283.243C347.381 266.688 346.615 245.246 334.013 232.525C321.411 219.803 299.874 219.228 283.319 219.205H254.402C238.95 219.205 238.039 218.294 238.039 202.842V173.925V145.008C238.039 129.556 238.95 128.645 254.402 128.645H283.319C300.089 128.645 321.316 127.903 334.037 115.325C346.758 102.747 347.333 81.1617 347.357 64.6071C347.381 48.0525 346.615 26.6106 334.037 13.8892C321.459 1.16783 299.874 0.544922 283.319 0.544922C266.764 0.544922 245.322 1.2876 232.601 13.8653C219.88 26.4429 219.305 48.0286 219.281 64.5832V93.4998C219.281 108.952 218.37 109.863 202.918 109.863H145.085C129.632 109.863 128.722 108.952 128.722 93.4998V64.6071C128.722 47.9567 127.979 26.6106 115.401 13.8892C102.824 1.16783 81.2379 0.544922 64.6833 0.544922C48.1287 0.544922 26.6868 1.2876 13.9654 13.8653C1.24397 26.4429 0.669 48.0286 0.645042 64.5832C0.621085 81.1378 1.38772 102.58 13.9654 115.277C26.543 127.975 48.1287 128.597 64.6833 128.621H93.6C109.053 128.621 109.963 129.532 109.963 144.984V173.901V202.794C109.963 218.27 109.053 219.181 93.6 219.181H64.6833C47.9131 219.181 26.6868 219.923 13.9654 232.501C1.24397 245.079 0.669 266.664 0.645042 283.219C0.621085 299.773 1.38772 321.215 13.9654 333.913C26.543 346.61 48.1287 347.257 64.6833 347.281Z" fill="#0B277D"/>
</svg>
