<svg width="29" height="25" viewBox="0 0 29 25" fill="none" xmlns="http://www.w3.org/2000/svg">
<path d="M16.3333 0.795898C13.1507 0.795898 10.0985 2.06018 7.84805 4.31062C5.59761 6.56105 4.33333 9.6133 4.33333 12.7959H0.333328L5.51999 17.9826L5.61333 18.1692L11 12.7959H7C7 7.6359 11.1733 3.46257 16.3333 3.46257C21.4933 3.46257 25.6667 7.6359 25.6667 12.7959C25.6667 17.9559 21.4933 22.1292 16.3333 22.1292C13.76 22.1292 11.4267 21.0759 9.74666 19.3826L7.85333 21.2759C8.96455 22.3932 10.286 23.2796 11.7414 23.8837C13.1968 24.4878 14.7575 24.7979 16.3333 24.7959C19.5159 24.7959 22.5682 23.5316 24.8186 21.2812C27.069 19.0307 28.3333 15.9785 28.3333 12.7959C28.3333 9.6133 27.069 6.56105 24.8186 4.31062C22.5682 2.06018 19.5159 0.795898 16.3333 0.795898ZM15 7.46257V14.1292L20.7067 17.5159L21.6667 15.9026L17 13.1292V7.46257H15Z" fill="#93D500"/>
</svg>
