<svg width="76" height="77" viewBox="0 0 76 77" fill="none" xmlns="http://www.w3.org/2000/svg">
<path d="M37.593 76.5843C29.7156 76.5843 16.5316 76.5843 8.24284 68.3218C0 60.1035 0 46.7004 0 38.6906C0 30.6807 -2.38996e-06 17.2755 8.24702 9.05725C16.5337 0.796879 29.7156 0.796875 37.593 0.796875C45.4703 0.796875 58.8381 0.796875 66.9911 9.10566C75.188 17.4608 75.188 30.7502 75.188 38.6927C75.1859 46.6373 75.1817 59.9309 66.9911 68.2776C58.836 76.5864 45.5372 76.5864 37.593 76.5864V76.5843Z" fill="#082A83"/>
<path fill-rule="evenodd" clip-rule="evenodd" d="M14.0425 47.0865L14.0395 47.0818C13.3355 45.9716 12.9206 44.6722 12.767 43.2127V43.2127C12.7057 42.6306 13.1622 42.1235 13.7475 42.1235H18.7382C19.1907 42.1235 19.585 42.4315 19.6948 42.8704V42.8704C19.8133 43.3447 20.0317 43.7224 20.3484 44.0294C20.7163 44.3396 21.1619 44.5738 21.7026 44.7236C22.3164 44.8868 22.9674 44.9703 23.6586 44.9703C24.114 44.9703 24.5559 44.929 24.9854 44.8472L24.9895 44.8464L24.9935 44.8457C25.41 44.7699 25.7547 44.6421 26.0407 44.4738L26.0511 44.4677L26.0618 44.4618C26.3368 44.309 26.5337 44.1148 26.6748 43.8748C26.796 43.6689 26.8901 43.3513 26.8901 42.8635C26.8901 42.4199 26.8066 42.1298 26.7005 41.941C26.5643 41.6989 26.3892 41.5108 26.1694 41.3642C25.946 41.2153 25.6528 41.0939 25.2666 41.0204L25.2621 41.0195L25.2577 41.0186C24.8602 40.9391 24.4219 40.8972 23.9398 40.8972H22.5368C21.1755 40.8972 20.0719 39.7936 20.0719 38.4323V37.1024C20.0719 35.7411 21.1755 34.6375 22.5368 34.6375H22.9909C23.5286 34.6375 23.9939 34.5866 24.393 34.4936C24.7906 34.378 25.0834 34.2365 25.2948 34.0866C25.5312 33.9123 25.6944 33.7223 25.805 33.519C25.9128 33.2988 25.9764 33.0344 25.9764 32.7064C25.9764 32.1349 25.8516 31.8227 25.7222 31.6535L25.714 31.6427L25.7061 31.6318C25.5314 31.3899 25.2835 31.1997 24.9163 31.072C24.5025 30.9281 23.9947 30.8455 23.3775 30.8455C22.8291 30.8455 22.3217 30.9333 21.8487 31.1036L21.8377 31.1075L21.8265 31.1113C21.3921 31.2561 21.0605 31.4621 20.8061 31.7166L20.1089 31.0194C20.4838 30.6445 20.9524 30.3633 21.5147 30.1759C22.1005 29.965 22.7214 29.8596 23.3775 29.8596C24.0804 29.8596 24.7013 29.9533 25.2402 30.1407C25.7791 30.3282 26.2008 30.6328 26.5054 31.0545C26.81 31.4528 26.9623 32.0035 26.9623 32.7064C26.9623 33.175 26.8686 33.5967 26.6812 33.9716C26.4937 34.3231 26.2243 34.6277 25.8728 34.8854C25.5448 35.1197 25.1347 35.3072 24.6427 35.4477C24.1507 35.5649 23.6001 35.6235 22.9909 35.6235V35.6235C21.9233 35.6235 21.0578 36.4889 21.0578 37.5565V37.7674C21.0578 38.9514 22.0177 39.9112 23.2017 39.9112H23.9398C24.4787 39.9112 24.9825 39.9581 25.4511 40.0518C25.9431 40.1455 26.3648 40.3096 26.7163 40.5439C27.0678 40.7782 27.3489 41.0828 27.5598 41.4577C27.7707 41.8325 27.8761 42.3011 27.8761 42.8635C27.8761 43.4727 27.759 43.9764 27.5247 44.3747C27.2904 44.7731 26.9623 45.0894 26.5406 45.3237C26.1423 45.558 25.6854 45.722 25.1699 45.8157C24.6779 45.9094 24.1741 45.9563 23.6586 45.9563C22.8854 45.9563 22.1474 45.8626 21.4445 45.6751C20.765 45.4877 20.1792 45.1831 19.6872 44.7614V44.7614C18.8671 43.9823 17.9448 43.1095 16.8137 43.1095H14.7458C14.2122 43.1095 13.7914 43.5733 13.901 44.0955V44.0955C14.0948 45.0189 14.4185 45.8383 14.8722 46.5538C15.4814 47.491 16.2429 48.2642 17.1567 48.8734C18.0705 49.4826 19.078 49.9278 20.1792 50.2089C21.2804 50.4901 22.4285 50.6307 23.6235 50.6307C24.7247 50.6307 25.8259 50.5135 26.9272 50.2792C28.0284 50.0215 29.0359 49.6115 29.9497 49.0491C30.8635 48.4634 31.5898 47.6784 32.1287 46.6944C32.6911 45.6869 32.9722 44.4333 32.9722 42.9338C32.9722 42.02 32.8199 41.1648 32.5153 40.3681C32.2342 39.5715 31.8007 38.8803 31.215 38.2945C30.8957 37.9753 30.5277 37.7048 30.1111 37.483V37.483C29.7148 37.272 29.6441 36.6272 29.9877 36.3385V36.3385C30.1867 36.1712 30.3732 35.9915 30.5472 35.7992C31.0158 35.2837 31.3673 34.698 31.6016 34.0419C31.8593 33.3859 31.9882 32.6829 31.9882 31.9332C31.9882 30.7148 31.7539 29.6721 31.2852 28.8052C30.8166 27.9383 30.184 27.2471 29.3874 26.7316C28.6142 26.1927 27.7355 25.8061 26.7515 25.5718C25.7674 25.3375 24.7364 25.2203 23.6586 25.2203C22.534 25.2203 21.4445 25.3609 20.3901 25.6421C19.3591 25.8998 18.4219 26.3216 17.5784 26.9073C16.7349 27.4931 16.0437 28.2429 15.5048 29.1567C15.1118 29.8061 14.8246 30.5552 14.6435 31.4041V31.4041C14.5323 31.9253 14.9517 32.3901 15.4845 32.3901H17.792C18.7136 32.3901 19.4573 31.671 20.1089 31.0194V31.0194L20.8061 31.7166C20.5704 31.9522 20.413 32.2375 20.3343 32.5995V32.5995C20.2358 33.0527 19.8347 33.376 19.3709 33.376H14.4856C13.898 33.376 13.4408 32.8652 13.5057 32.2812V32.2812C13.6584 30.907 14.0325 29.6869 14.6584 28.651C15.2667 27.621 16.0533 26.766 17.016 26.0975C17.9589 25.4428 19.0038 24.9733 20.1434 24.6874C21.2809 24.3848 22.4535 24.2344 23.6586 24.2344C24.8083 24.2344 25.9162 24.3594 26.9798 24.6126C28.0695 24.8721 29.0589 25.3036 29.9373 25.9131C30.8716 26.521 31.6112 27.3348 32.1526 28.3364C32.7154 29.3775 32.9741 30.5892 32.9741 31.9332C32.9741 32.7931 32.8267 33.6142 32.5249 34.3881C32.2469 35.1605 31.8298 35.8538 31.2775 36.4616V36.4616C31.1082 36.6486 31.1388 36.9479 31.3401 37.0999C31.5418 37.2521 31.7326 37.4178 31.9121 37.5974C32.6011 38.2863 33.1115 39.1003 33.4408 40.0279C33.7883 40.9413 33.9582 41.9127 33.9582 42.9338C33.9582 44.5509 33.6556 45.98 32.9917 47.1713C32.3765 48.2935 31.5383 49.2019 30.4818 49.8792L30.4742 49.8841L30.4665 49.8888C29.4576 50.5096 28.3507 50.9587 27.1519 51.2392L27.1421 51.2415L27.1324 51.2436C25.9652 51.4919 24.7952 51.6166 23.6235 51.6166C22.3505 51.6166 21.1202 51.4668 19.9353 51.1643C18.73 50.8565 17.6194 50.3669 16.6098 49.6938C15.5824 49.0089 14.7264 48.1387 14.0455 47.0911L14.0425 47.0865Z" fill="white"/>
<path d="M23.622 50.631C22.4271 50.631 21.279 50.4905 20.1778 50.2093C19.0765 49.9281 18.069 49.4829 17.1552 48.8738C16.2414 48.2646 15.4799 47.4914 14.8708 46.5541C14.4326 45.8632 14.1157 45.0754 13.9199 44.1906C13.7935 43.619 14.2559 43.1099 14.8413 43.1099H17.967C18.4194 43.1099 18.7991 43.4263 18.9995 43.8319C19.1718 44.1809 19.4006 44.4908 19.6857 44.7617C20.1778 45.1835 20.7635 45.4881 21.443 45.6755C22.1459 45.8629 22.884 45.9567 23.6572 45.9567C24.1727 45.9567 24.6764 45.9098 25.1684 45.8161C25.6839 45.7224 26.1408 45.5583 26.5391 45.324C26.9609 45.0897 27.2889 44.7734 27.5232 44.3751C27.7575 43.9768 27.8747 43.473 27.8747 42.8638C27.8747 42.3015 27.7692 41.8329 27.5584 41.458C27.3475 41.0831 27.0663 40.7785 26.7149 40.5442C26.3634 40.3099 25.9417 40.1459 25.4496 40.0522C24.981 39.9585 24.4772 39.9116 23.9383 39.9116H22.0424C21.4978 39.9116 21.0564 39.4702 21.0564 38.9256V36.6098C21.0564 36.0653 21.4978 35.6238 22.0424 35.6238H22.9894C23.5986 35.6238 24.1492 35.5653 24.6413 35.4481C25.1333 35.3075 25.5433 35.1201 25.8714 34.8858C26.2228 34.628 26.4923 34.3234 26.6797 33.972C26.8672 33.5971 26.9609 33.1753 26.9609 32.7067C26.9609 32.0038 26.8086 31.4532 26.504 31.0549C26.1994 30.6331 25.7776 30.3285 25.2387 30.1411C24.6998 29.9537 24.0789 29.8599 23.376 29.8599C22.72 29.8599 22.0991 29.9654 21.5133 30.1762C20.951 30.3637 20.4824 30.6449 20.1075 31.0197C19.9193 31.2079 19.7636 31.4167 19.6404 31.6461C19.421 32.0548 19.0386 32.3904 18.5748 32.3904H15.5857C14.9981 32.3904 14.5348 31.8774 14.664 31.3041C14.8461 30.4964 15.1259 29.7807 15.5034 29.157C16.0423 28.2432 16.7335 27.4935 17.577 26.9077C18.4205 26.3219 19.3577 25.9002 20.3886 25.6424C21.443 25.3613 22.5325 25.2207 23.6572 25.2207C24.735 25.2207 25.7659 25.3379 26.75 25.5722C27.7341 25.8065 28.6127 26.1931 29.3859 26.732C30.1826 27.2474 30.8152 27.9386 31.2838 28.8056C31.7524 29.6725 31.9867 30.7151 31.9867 31.9335C31.9867 32.6833 31.8578 33.3862 31.6001 34.0423C31.3658 34.6983 31.0143 35.2841 30.5457 35.7996V35.7996C30.0545 36.3425 30.1833 37.4584 30.7652 37.9028C30.924 38.0241 31.0734 38.1548 31.2135 38.2949C31.7993 38.8807 32.2327 39.5719 32.5139 40.3685C32.8185 41.1651 32.9708 42.0203 32.9708 42.9341C32.9708 44.4337 32.6896 45.6872 32.1273 46.6947C31.5884 47.6788 30.862 48.4637 29.9483 49.0495C29.0345 49.6118 28.027 50.0219 26.9257 50.2796C25.8245 50.5139 24.7233 50.631 23.622 50.631Z" fill="#93D500"/>
<path d="M41.766 50.3851C40.5796 50.3851 39.8761 49.0583 40.5419 48.0762L46.8571 38.7613C47.1927 38.2663 47.1972 37.6178 46.8683 37.1183L40.7312 27.794C40.0839 26.8106 40.7893 25.502 41.9666 25.502H44.4718C44.9878 25.502 45.4666 25.771 45.735 26.2118L49.3381 32.1295C49.9164 33.0792 51.2965 33.0752 51.8691 32.1221L55.4155 26.2192C55.6829 25.7742 56.1641 25.502 56.6833 25.502H59.073C60.2512 25.502 60.9563 26.8123 60.3073 27.7956L54.1766 37.0838C53.8471 37.583 53.8507 38.2314 54.1857 38.7269L60.5074 48.0778C61.1714 49.06 60.4678 50.3851 59.2822 50.3851H56.7984C56.2931 50.3851 55.8227 50.127 55.5511 49.7008L51.662 43.5964C51.0856 42.6917 49.768 42.6824 49.1788 43.5788L45.1435 49.7185C44.87 50.1346 44.4055 50.3851 43.9076 50.3851H41.766Z" fill="#248FD9"/>
<path opacity="0.79" fill-rule="evenodd" clip-rule="evenodd" d="M39.9067 51.3707C38.7202 51.3707 38.0167 50.0439 38.6825 49.0618L45.6717 38.7528C46.0073 38.2578 46.0117 37.6094 45.6829 37.1098L38.9021 26.8077C38.2549 25.8243 38.9602 24.5156 40.1375 24.5156H45.0261C45.5421 24.5156 46.0209 24.7846 46.2893 25.2254L49.3328 30.2241C49.911 31.1737 51.2911 31.1697 51.8637 30.2166L54.858 25.2329C55.1253 24.7879 55.6065 24.5156 56.1257 24.5156H60.9055C62.0836 24.5156 62.7888 25.826 62.1398 26.8093L55.3626 37.0769C55.0331 37.576 55.0367 38.2245 55.3716 38.7199L62.3644 49.0634C63.0284 50.0456 62.3248 51.3707 61.1392 51.3707H56.2578C55.7524 51.3707 55.282 51.1126 55.0105 50.6864L51.6494 45.4108C51.073 44.5061 49.7554 44.4967 49.1662 45.3932L45.6756 50.7041C45.4021 51.1202 44.9376 51.3707 44.4397 51.3707H39.9067ZM49.1791 43.5784C49.7683 42.682 51.0859 42.6914 51.6623 43.5961L55.5514 49.7005C55.8229 50.1267 56.2933 50.3847 56.7987 50.3847H59.2825C60.4681 50.3847 61.1717 49.0597 60.5077 48.0775L54.1859 38.7265C53.851 38.231 53.8474 37.5826 54.1768 37.0835L60.3076 27.7953C60.9566 26.812 60.2514 25.5016 59.0733 25.5016H56.6836C56.1644 25.5016 55.6832 25.7738 55.4158 26.2189L51.8694 32.1217C51.2967 33.0748 49.9166 33.0789 49.3384 32.1292L45.7352 26.2114C45.4669 25.7706 44.9881 25.5016 44.472 25.5016H41.9668C40.7896 25.5016 40.0842 26.8103 40.7315 27.7936L46.8686 37.1179C47.1974 37.6175 47.193 38.2659 46.8574 38.7609L40.5422 48.0759C39.8764 49.0579 40.5799 50.3847 41.7663 50.3847H43.9078C44.4058 50.3847 44.8703 50.1342 45.1437 49.7181L49.1791 43.5784Z" fill="white"/>
</svg>
